<svg width="49" height="49" viewBox="0 0 49 49" fill="none" xmlns="http://www.w3.org/2000/svg">
<circle cx="24.6289" cy="24.252" r="23.75" fill="white" stroke="#DEE2E8" stroke-width="0.5"/>
<path fill-rule="evenodd" clip-rule="evenodd" d="M26.8199 15.7545C28.4498 15.7545 29.7711 14.4332 29.7711 12.8033C29.7711 11.1734 28.4498 9.85205 26.8199 9.85205C25.19 9.85205 23.8687 11.1734 23.8687 12.8033C23.8687 14.4332 25.19 15.7545 26.8199 15.7545ZM40.1514 24.2521C40.1514 27.5681 37.4632 30.2563 34.1471 30.2563C30.8311 30.2563 28.1429 27.5681 28.1429 24.2521C28.1429 20.936 30.8311 18.2478 34.1471 18.2478C37.4632 18.2478 40.1514 20.936 40.1514 24.2521ZM29.7711 35.7008C29.7711 37.3307 28.4498 38.6521 26.8199 38.6521C25.19 38.6521 23.8687 37.3307 23.8687 35.7008C23.8687 34.0709 25.19 32.7496 26.8199 32.7496C28.4498 32.7496 29.7711 34.0709 29.7711 35.7008ZM11.7075 15.9581C10.8425 18.2478 12.0637 20.8429 14.3535 21.7079C15.88 22.2676 17.5083 21.9623 18.6786 20.9955C19.7471 20.2323 21.121 19.9778 22.4439 20.4867C23.309 20.792 23.9704 21.3517 24.4284 22.0641L24.4793 22.1658C24.6828 22.4711 24.9881 22.7764 25.3952 22.8782C26.3111 23.2344 27.3796 22.7255 27.6849 21.8096C28.0411 20.8937 27.5323 19.8252 26.6164 19.5199C26.2093 19.3672 25.8022 19.3672 25.3952 19.5199C24.581 19.7743 23.6651 19.7743 22.8001 19.469C21.528 19.0111 20.663 17.9934 20.3068 16.8231L20.256 16.7213C20.256 16.6704 20.256 16.6195 20.2051 16.6195V16.5178C19.8489 15.093 18.8821 13.8718 17.4065 13.363C15.1167 12.4471 12.5217 13.6174 11.7075 15.9581ZM14.3535 26.7962C12.0637 27.6612 10.8425 30.2563 11.7075 32.546C12.5726 34.8867 15.1167 36.057 17.4065 35.1411C18.8821 34.6323 19.8489 33.4111 20.2051 31.9863V31.8846C20.256 31.8846 20.256 31.8337 20.256 31.7828L20.3068 31.681C20.663 30.5107 21.528 29.493 22.8001 29.0351C23.6651 28.7298 24.581 28.7298 25.3952 28.9842C25.8022 29.1369 26.2093 29.1369 26.6164 28.9842C27.5323 28.6789 28.0411 27.6104 27.6849 26.6945C27.3796 25.7786 26.3111 25.2697 25.3952 25.6259C24.9881 25.7277 24.6828 26.033 24.4793 26.3383L24.4284 26.44C23.9704 27.1524 23.309 27.7121 22.4439 28.0174C21.121 28.5263 19.7471 28.2718 18.6786 27.5086C17.5083 26.5418 15.88 26.2365 14.3535 26.7962Z" fill="#266CD3"/>
</svg>
