<svg width="204" height="23" viewBox="0 0 204 23" fill="none" xmlns="http://www.w3.org/2000/svg">
<g clip-path="url(#clip0_2515_5517)">
<path d="M9.10805 5.85269C7.73047 5.85269 6.67053 6.25698 5.93826 7.06558C5.20266 7.87417 4.8382 9.01647 4.8382 10.4957C4.8382 11.9749 5.24613 13.1429 6.06198 13.9515C6.87783 14.7601 7.97455 15.1643 9.35214 15.1643C10.0877 15.1643 10.7097 15.0713 11.2179 14.882C11.7261 14.6927 12.2177 14.4777 12.6824 14.237C12.9867 14.4777 13.2241 14.7665 13.3946 15.1002C13.5652 15.4339 13.6487 15.8253 13.6487 16.2746C13.6487 16.9805 13.2408 17.5773 12.425 18.065C11.6091 18.556 10.3686 18.7998 8.70347 18.7998C7.5031 18.7998 6.37628 18.6362 5.31634 18.3089C4.25975 17.9816 3.3369 17.481 2.54779 16.8008C1.75869 16.1205 1.13677 15.2638 0.682032 14.221C0.223951 13.1814 -0.00341797 11.9396 -0.00341797 10.4957C-0.00341797 9.15444 0.21392 7.97364 0.655283 6.95006C1.0933 5.92649 1.69516 5.06335 2.45417 4.35743C3.21653 3.65152 4.10594 3.11887 5.12576 2.7595C6.14557 2.40012 7.23895 2.21722 8.40254 2.21722C10.051 2.21722 11.3282 2.47392 12.231 2.99052C13.1338 3.50712 13.5886 4.16812 13.5886 4.97671C13.5886 5.42272 13.4715 5.81097 13.2408 6.13826C13.0068 6.46555 12.7393 6.72225 12.435 6.91156C11.9702 6.61957 11.472 6.36929 10.9437 6.16393C10.4154 5.95857 9.80353 5.8559 9.10471 5.8559L9.10805 5.85269Z" fill="#2E6BC7"/>
<path d="M28.9629 12.0679C28.9629 13.1332 28.7924 14.083 28.4513 14.9173C28.1103 15.7515 27.6321 16.451 27.0135 17.019C26.395 17.5869 25.656 18.0169 24.7967 18.3089C23.9374 18.6009 22.9777 18.7485 21.9211 18.7485C20.8645 18.7485 19.9049 18.5944 19.0456 18.2832C18.1863 17.9752 17.4473 17.5324 16.8287 16.9548C16.2102 16.3804 15.732 15.6777 15.391 14.8531C15.0499 14.0285 14.8794 13.1011 14.8794 12.0679C14.8794 11.0347 15.0499 10.1331 15.391 9.30845C15.732 8.48382 16.2102 7.78432 16.8287 7.20675C17.4473 6.63239 18.1863 6.18959 19.0456 5.87835C19.9049 5.5671 20.8645 5.41309 21.9211 5.41309C22.9777 5.41309 23.9374 5.57352 24.7967 5.89118C25.656 6.20884 26.395 6.65486 27.0135 7.23242C27.6321 7.80999 28.1103 8.50949 28.4513 9.33412C28.7924 10.1588 28.9629 11.07 28.9629 12.0679ZM19.5605 12.0679C19.5605 13.1172 19.7712 13.9194 20.1925 14.4777C20.6138 15.036 21.1989 15.3152 21.9512 15.3152C22.7036 15.3152 23.282 15.0328 23.6833 14.4648C24.0845 13.8969 24.2885 13.0979 24.2885 12.0679C24.2885 11.0379 24.0811 10.2422 23.6699 9.68387C23.2586 9.12556 22.6768 8.8464 21.9245 8.8464C21.1722 8.8464 20.5904 9.12556 20.1791 9.68387C19.7678 10.2422 19.5605 11.0379 19.5605 12.0679Z" fill="#2E6BC7"/>
<path d="M39.4684 10.3898C39.4684 9.85714 39.3113 9.46568 38.997 9.2154C38.6827 8.96512 38.258 8.83998 37.7197 8.83998C37.3619 8.83998 37.0075 8.88169 36.6598 8.96833C36.312 9.05496 36.0111 9.18331 35.7603 9.35658V18.3025C35.5798 18.3538 35.2989 18.4051 34.9144 18.4565C34.5298 18.5078 34.1319 18.5335 33.7207 18.5335C33.3094 18.5335 32.9717 18.5078 32.6574 18.4565C32.3431 18.4051 32.0789 18.3025 31.8649 18.1484C31.651 17.9944 31.4838 17.7826 31.3667 17.5163C31.2497 17.25 31.1929 16.9035 31.1929 16.4735V8.74051C31.1929 8.27525 31.2965 7.89983 31.5038 7.60784C31.7078 7.31584 31.992 7.04952 32.3498 6.80887C32.9583 6.39815 33.724 6.06124 34.6469 5.80454C35.5697 5.54785 36.5962 5.41629 37.723 5.41629C39.746 5.41629 41.3041 5.84305 42.3975 6.69336C43.4909 7.54366 44.0359 8.72767 44.0359 10.239V18.3089C43.8553 18.3602 43.5744 18.4115 43.1899 18.4629C42.8054 18.5142 42.4075 18.5399 41.9962 18.5399C41.585 18.5399 41.2473 18.5142 40.933 18.4629C40.6186 18.4115 40.3545 18.3089 40.1405 18.1549C39.9265 18.0008 39.7593 17.7891 39.6423 17.5227C39.5253 17.2564 39.4684 16.9099 39.4684 16.4799V10.3962V10.3898Z" fill="#2E6BC7"/>
<path d="M53.2242 5.4131C54.244 5.4131 55.1735 5.53824 56.0061 5.78852C56.8387 6.0388 57.5409 6.35967 58.116 6.75434C58.4737 6.99499 58.7546 7.26131 58.9619 7.55331C59.1659 7.8453 59.2695 8.22392 59.2695 8.68919V17.7121C59.2695 18.6233 59.089 19.4095 58.7312 20.0705C58.3734 20.7315 57.8853 21.2834 57.2667 21.7197C56.6481 22.1593 55.9225 22.4802 55.09 22.6856C54.2574 22.8909 53.3646 22.9968 52.415 22.9968C50.7833 22.9968 49.5027 22.785 48.5732 22.3647C47.6403 21.9443 47.1755 21.2609 47.1755 20.3143C47.1755 19.9197 47.2591 19.5699 47.4296 19.2715C47.6002 18.9699 47.7907 18.7421 48.0081 18.588C48.5264 18.864 49.1148 19.095 49.7668 19.2843C50.4189 19.4736 51.0976 19.5667 51.7965 19.5667C52.7628 19.5667 53.5318 19.4127 54.1069 19.1014C54.6787 18.7902 54.9662 18.2928 54.9662 17.6062V17.1923C54.2306 17.5035 53.3379 17.6575 52.2813 17.6575C51.4755 17.6575 50.7098 17.542 49.9842 17.311C49.2586 17.08 48.6233 16.7174 48.0783 16.2264C47.5299 15.7355 47.0919 15.1034 46.7609 14.3301C46.4299 13.5568 46.2627 12.6359 46.2627 11.5706C46.2627 10.5053 46.4366 9.61009 46.7876 8.83679C47.1354 8.06349 47.6202 7.42175 48.2388 6.91477C48.8574 6.4078 49.5896 6.02917 50.4423 5.77889C51.2916 5.52861 52.2211 5.40347 53.2242 5.40347V5.4131ZM54.8893 9.15124C54.7623 9.08386 54.5784 9.01327 54.3376 8.94588C54.0969 8.8785 53.796 8.8432 53.4382 8.8432C52.5588 8.8432 51.9034 9.08065 51.4621 9.55233C51.0241 10.024 50.8034 10.6978 50.8034 11.577C50.8034 12.5749 51.0207 13.2905 51.4621 13.7301C51.9001 14.1697 52.4618 14.3878 53.1406 14.3878C53.8762 14.3878 54.458 14.2242 54.886 13.8969V9.15445L54.8893 9.15124Z" fill="#2E6BC7"/>
<path d="M66.6592 18.3057C66.4787 18.357 66.1978 18.4083 65.8133 18.4597C65.4288 18.511 65.0309 18.5367 64.6196 18.5367C64.2083 18.5367 63.8706 18.511 63.5563 18.4597C63.242 18.4083 62.9779 18.3057 62.7639 18.1516C62.5499 17.9976 62.3827 17.7858 62.2657 17.5195C62.1486 17.2532 62.0918 16.9067 62.0918 16.4767V8.74051C62.0918 8.34584 62.1687 8.00572 62.3192 7.72335C62.4696 7.44098 62.6903 7.1875 62.9779 6.96289C63.2654 6.74149 63.6165 6.53934 64.0378 6.35644C64.4591 6.17675 64.9105 6.01632 65.3953 5.87834C65.8802 5.74037 66.3817 5.63448 66.9 5.55426C67.4182 5.47726 67.9399 5.43875 68.4581 5.43875C69.3174 5.43875 69.9996 5.59919 70.5011 5.91685C71.0027 6.23451 71.2534 6.75432 71.2534 7.47628C71.2534 7.71693 71.2166 7.95438 71.1464 8.1854C71.0762 8.41643 70.9859 8.6282 70.8789 8.81752C70.5011 8.81752 70.1166 8.83356 69.722 8.86886C69.3275 8.90415 68.943 8.95549 68.5651 9.02288C68.1873 9.09026 67.8362 9.16406 67.5052 9.24107C67.1742 9.31808 66.8899 9.40792 66.6592 9.5106V18.3025V18.3057Z" fill="#2E6BC7"/>
<path d="M78.1013 5.41309C79.0676 5.41309 79.9503 5.50614 80.7494 5.69545C81.5452 5.88477 82.2273 6.17355 82.7924 6.55859C83.3575 6.94364 83.7922 7.43457 84.0964 8.02818C84.4007 8.62179 84.5545 9.32129 84.5545 10.1299V15.9056C84.5545 16.3516 84.4241 16.7174 84.1633 17.0029C83.9025 17.2853 83.5949 17.5324 83.2371 17.7377C82.0735 18.4083 80.4351 18.742 78.3219 18.742C77.3723 18.742 76.5164 18.6554 75.7574 18.4854C74.995 18.3121 74.343 18.0554 73.7946 17.7121C73.2463 17.3687 72.8283 16.9291 72.5307 16.3965C72.2365 15.8638 72.0894 15.2446 72.0894 14.5386C72.0894 13.3514 72.4572 12.4434 73.1894 11.8048C73.925 11.1695 75.0619 10.7748 76.5999 10.6176L80.1208 10.255V10.0753C80.1208 9.57799 79.8935 9.22182 79.4354 9.00684C78.9773 8.79185 78.3219 8.68597 77.4593 8.68597C76.7772 8.68597 76.1151 8.75335 75.4698 8.89132C74.8245 9.0293 74.2427 9.20257 73.7244 9.40792C73.4903 9.25391 73.2931 9.01646 73.1326 8.6988C72.9721 8.38114 72.8918 8.05064 72.8918 7.70731C72.8918 7.2613 73.0022 6.90513 73.2262 6.63881C73.4502 6.37249 73.7946 6.14467 74.2594 5.95536C74.7777 5.76604 75.3929 5.62807 76.0984 5.54143C76.8073 5.4548 77.4726 5.41309 78.1013 5.41309ZM78.3152 15.5462C78.6195 15.5462 78.9539 15.5173 79.3217 15.4563C79.6895 15.3954 79.9603 15.3152 80.1409 15.2125V13.1493L78.2082 13.3033C77.7067 13.3386 77.2954 13.4413 76.9711 13.6145C76.6501 13.7878 76.4863 14.0445 76.4863 14.3878C76.4863 14.7312 76.6234 15.0103 76.9042 15.2253C77.1817 15.4403 77.6532 15.5462 78.3152 15.5462Z" fill="#2E6BC7"/>
<path d="M91.9137 14.0252C91.9137 14.4712 92.0608 14.7921 92.3551 14.9782C92.6493 15.1675 93.0673 15.2606 93.6056 15.2606C93.8731 15.2606 94.1506 15.2381 94.4382 15.1964C94.7257 15.1547 94.9765 15.0969 95.1905 15.0296C95.351 15.2189 95.4914 15.4274 95.6051 15.6617C95.7188 15.8959 95.779 16.1719 95.779 16.4991C95.779 17.1537 95.5248 17.6864 95.0133 18.0971C94.5017 18.511 93.6022 18.7164 92.3116 18.7164C90.7367 18.7164 89.523 18.373 88.6703 17.6864C87.8211 16.9997 87.3931 15.8799 87.3931 14.3333V3.29854C87.5903 3.2472 87.8712 3.19265 88.239 3.13168C88.6068 3.07072 88.9947 3.04184 89.406 3.04184C90.1951 3.04184 90.8069 3.17661 91.245 3.43972C91.683 3.70604 91.9037 4.27077 91.9037 5.1275V6.77677H95.4245C95.5315 6.96609 95.6352 7.20353 95.7355 7.4859C95.8325 7.76826 95.8826 8.08272 95.8826 8.42605C95.8826 9.02928 95.7422 9.46246 95.4647 9.72878C95.1871 9.9951 94.816 10.1267 94.3512 10.1267H91.907V14.0188L91.9137 14.0252Z" fill="#2E6BC7"/>
<path d="M98.0927 5.98103C98.2733 5.92969 98.5541 5.87835 98.9386 5.82701C99.3232 5.77567 99.7211 5.75 100.132 5.75C100.544 5.75 100.881 5.77567 101.196 5.82701C101.51 5.87835 101.774 5.98103 101.988 6.13504C102.202 6.28906 102.369 6.50084 102.486 6.76716C102.603 7.03348 102.66 7.38002 102.66 7.80999V13.3546C102.66 14.0605 102.837 14.5611 103.198 14.8627C103.556 15.1643 104.075 15.3152 104.757 15.3152C105.168 15.3152 105.506 15.2799 105.763 15.2125C106.024 15.1451 106.224 15.0745 106.368 15.0071V5.98103C106.549 5.92969 106.83 5.87835 107.214 5.82701C107.599 5.77567 107.997 5.75 108.408 5.75C108.819 5.75 109.157 5.77567 109.471 5.82701C109.785 5.87835 110.05 5.98103 110.264 6.13504C110.478 6.28906 110.645 6.50084 110.762 6.76716C110.879 7.03348 110.936 7.38002 110.936 7.80999V15.6489C110.936 16.5088 110.558 17.1537 109.806 17.5837C109.177 17.9623 108.431 18.2511 107.562 18.4468C106.693 18.6458 105.75 18.7453 104.727 18.7453C103.76 18.7453 102.867 18.6426 102.055 18.434C101.239 18.2287 100.537 17.911 99.9451 17.481C99.3533 17.0511 98.8985 16.496 98.5742 15.8189C98.2532 15.1419 98.0894 14.3205 98.0894 13.3578V5.98103H98.0927Z" fill="#2E6BC7"/>
<path d="M118.376 18.3057C118.178 18.3409 117.887 18.3859 117.503 18.4468C117.118 18.5078 116.727 18.5367 116.333 18.5367C115.938 18.5367 115.584 18.511 115.273 18.4597C114.958 18.4083 114.694 18.3057 114.48 18.1516C114.266 17.9976 114.099 17.7858 113.982 17.5195C113.865 17.2532 113.808 16.9067 113.808 16.4767V1.52091C114.005 1.48562 114.296 1.4407 114.681 1.37973C115.065 1.31876 115.457 1.28989 115.851 1.28989C116.246 1.28989 116.6 1.31556 116.911 1.3669C117.225 1.41823 117.489 1.52091 117.703 1.67493C117.917 1.82895 118.085 2.04072 118.202 2.30705C118.319 2.57337 118.376 2.92312 118.376 3.34988V18.3057Z" fill="#2E6BC7"/>
<path d="M126.624 5.41309C127.591 5.41309 128.473 5.50614 129.272 5.69545C130.068 5.88477 130.75 6.17355 131.315 6.55859C131.88 6.94364 132.315 7.43457 132.619 8.02818C132.924 8.62179 133.077 9.32129 133.077 10.1299V15.9056C133.077 16.3516 132.947 16.7174 132.686 17.0029C132.425 17.2853 132.118 17.5324 131.76 17.7377C130.596 18.4083 128.958 18.742 126.845 18.742C125.895 18.742 125.039 18.6554 124.28 18.4854C123.518 18.3121 122.866 18.0554 122.318 17.7121C121.769 17.3687 121.351 16.9291 121.054 16.3965C120.759 15.8638 120.612 15.2446 120.612 14.5386C120.612 13.3514 120.98 12.4434 121.712 11.8048C122.448 11.1695 123.585 10.7748 125.123 10.6176L128.644 10.255V10.0753C128.644 9.57799 128.416 9.22182 127.958 9.00684C127.5 8.79185 126.845 8.68597 125.982 8.68597C125.3 8.68597 124.638 8.75335 123.993 8.89132C123.347 9.0293 122.766 9.20257 122.247 9.40792C122.013 9.25391 121.816 9.01646 121.656 8.6988C121.495 8.38114 121.415 8.05064 121.415 7.70731C121.415 7.2613 121.525 6.90513 121.749 6.63881C121.973 6.37249 122.318 6.14467 122.782 5.95536C123.301 5.76604 123.916 5.62807 124.621 5.54143C125.33 5.4548 125.996 5.41309 126.624 5.41309ZM126.838 15.5462C127.142 15.5462 127.477 15.5173 127.845 15.4563C128.212 15.3954 128.483 15.3152 128.664 15.2125V13.1493L126.731 13.3033C126.23 13.3386 125.818 13.4413 125.494 13.6145C125.173 13.7878 125.009 14.0445 125.009 14.3878C125.009 14.7312 125.146 15.0103 125.427 15.2253C125.705 15.4403 126.176 15.5462 126.838 15.5462Z" fill="#2E6BC7"/>
<path d="M140.434 14.0252C140.434 14.4712 140.581 14.7921 140.875 14.9782C141.169 15.1675 141.587 15.2606 142.126 15.2606C142.393 15.2606 142.671 15.2381 142.958 15.1964C143.246 15.1547 143.496 15.0969 143.71 15.0296C143.871 15.2189 144.011 15.4274 144.125 15.6617C144.239 15.8959 144.299 16.1719 144.299 16.4991C144.299 17.1537 144.045 17.6864 143.533 18.0971C143.022 18.511 142.122 18.7164 140.832 18.7164C139.257 18.7164 138.043 18.373 137.19 17.6864C136.341 16.9997 135.913 15.8799 135.913 14.3333V3.29854C136.11 3.2472 136.391 3.19265 136.759 3.13168C137.127 3.07072 137.515 3.04184 137.926 3.04184C138.715 3.04184 139.327 3.17661 139.765 3.43972C140.203 3.70604 140.424 4.27077 140.424 5.1275V6.77677H143.945C144.052 6.96609 144.155 7.20353 144.256 7.4859C144.352 7.76826 144.403 8.08272 144.403 8.42605C144.403 9.02928 144.262 9.46246 143.985 9.72878C143.707 9.9951 143.336 10.1267 142.871 10.1267H140.427V14.0188L140.434 14.0252Z" fill="#2E6BC7"/>
<path d="M146.506 2.31989C146.506 1.66532 146.733 1.11663 147.191 0.670619C147.649 0.224609 148.251 0 149.004 0C149.756 0 150.361 0.224609 150.819 0.670619C151.277 1.11663 151.505 1.66853 151.505 2.31989C151.505 2.97126 151.277 3.52316 150.819 3.96917C150.361 4.41518 149.756 4.63979 149.004 4.63979C148.251 4.63979 147.646 4.41518 147.191 3.96917C146.733 3.52316 146.506 2.97126 146.506 2.31989ZM151.287 18.3057C151.09 18.341 150.799 18.3859 150.415 18.4468C150.03 18.5078 149.639 18.5367 149.244 18.5367C148.85 18.5367 148.495 18.511 148.184 18.4597C147.87 18.4083 147.606 18.3057 147.392 18.1516C147.178 17.9976 147.011 17.7859 146.894 17.5195C146.777 17.2532 146.72 16.9067 146.72 16.4767V5.98103C146.917 5.94573 147.208 5.90081 147.593 5.83984C147.977 5.77888 148.368 5.75 148.763 5.75C149.157 5.75 149.512 5.77567 149.823 5.82701C150.137 5.87835 150.401 5.98103 150.615 6.13504C150.829 6.28906 150.996 6.50084 151.113 6.76716C151.23 7.03348 151.287 7.38002 151.287 7.80999V18.3057Z" fill="#2E6BC7"/>
<path d="M167.705 12.0679C167.705 13.1332 167.534 14.083 167.193 14.9173C166.852 15.7515 166.374 16.451 165.755 17.019C165.137 17.5869 164.398 18.0169 163.538 18.3089C162.679 18.6009 161.719 18.7485 160.663 18.7485C159.606 18.7485 158.647 18.5944 157.787 18.2832C156.928 17.9752 156.189 17.5324 155.57 16.9548C154.952 16.3804 154.474 15.6777 154.133 14.8531C153.792 14.0285 153.621 13.1011 153.621 12.0679C153.621 11.0347 153.792 10.1331 154.133 9.30845C154.474 8.48382 154.952 7.78432 155.57 7.20675C156.189 6.63239 156.928 6.18959 157.787 5.87835C158.647 5.5671 159.606 5.41309 160.663 5.41309C161.719 5.41309 162.679 5.57352 163.538 5.89118C164.398 6.20884 165.137 6.65486 165.755 7.23242C166.374 7.80999 166.852 8.50949 167.193 9.33412C167.534 10.1588 167.705 11.07 167.705 12.0679ZM158.302 12.0679C158.302 13.1172 158.513 13.9194 158.934 14.4777C159.355 15.036 159.941 15.3152 160.693 15.3152C161.445 15.3152 162.024 15.0328 162.425 14.4648C162.826 13.8969 163.03 13.0979 163.03 12.0679C163.03 11.0379 162.823 10.2422 162.412 9.68387C162 9.12556 161.419 8.8464 160.666 8.8464C159.914 8.8464 159.332 9.12556 158.921 9.68387C158.51 10.2422 158.302 11.0379 158.302 12.0679Z" fill="#2E6BC7"/>
<path d="M178.21 10.3898C178.21 9.85714 178.053 9.46568 177.739 9.2154C177.424 8.96512 177 8.83998 176.461 8.83998C176.104 8.83998 175.749 8.88169 175.401 8.96833C175.054 9.05496 174.753 9.18331 174.502 9.35658V18.3025C174.321 18.3538 174.041 18.4051 173.656 18.4565C173.272 18.5078 172.874 18.5335 172.462 18.5335C172.051 18.5335 171.713 18.5078 171.399 18.4565C171.085 18.4051 170.821 18.3025 170.607 18.1484C170.393 17.9944 170.225 17.7826 170.108 17.5163C169.991 17.25 169.935 16.9035 169.935 16.4735V8.74051C169.935 8.27525 170.038 7.89983 170.246 7.60784C170.449 7.31584 170.734 7.04952 171.091 6.80887C171.7 6.39815 172.466 6.06124 173.389 5.80454C174.311 5.54785 175.338 5.41629 176.465 5.41629C178.488 5.41629 180.046 5.84305 181.139 6.69336C182.233 7.54366 182.778 8.72767 182.778 10.239V18.3089C182.597 18.3602 182.316 18.4115 181.932 18.4629C181.547 18.5142 181.149 18.5399 180.738 18.5399C180.327 18.5399 179.989 18.5142 179.675 18.4629C179.36 18.4115 179.096 18.3089 178.882 18.1549C178.668 18.0008 178.501 17.7891 178.384 17.5227C178.267 17.2564 178.21 16.9099 178.21 16.4799V10.3962V10.3898Z" fill="#2E6BC7"/>
<path d="M196.614 14.5932C196.614 15.8991 196.102 16.9227 195.082 17.6607C194.063 18.3987 192.558 18.7709 190.568 18.7709C189.816 18.7709 189.117 18.7196 188.472 18.6169C187.827 18.5142 187.275 18.3538 186.82 18.1388C186.362 17.9238 186.004 17.6543 185.747 17.327C185.486 16.9997 185.356 16.6147 185.356 16.1655C185.356 15.7547 185.446 15.405 185.623 15.1226C185.804 14.8403 186.018 14.6028 186.268 14.4135C186.787 14.6895 187.382 14.9333 188.054 15.1483C188.726 15.3633 189.502 15.4692 190.378 15.4692C190.933 15.4692 191.358 15.3922 191.655 15.2381C191.949 15.0841 192.1 14.8756 192.1 14.6189C192.1 14.3782 191.993 14.1889 191.779 14.0509C191.565 13.9129 191.207 13.8006 190.705 13.7172L189.9 13.5632C188.342 13.2712 187.181 12.8124 186.419 12.1835C185.657 11.5545 185.275 10.6593 185.275 9.48814C185.275 8.85282 185.419 8.27525 185.707 7.76186C185.994 7.24526 186.396 6.8185 186.917 6.47196C187.435 6.12863 188.061 5.86231 188.783 5.67299C189.505 5.48368 190.311 5.39062 191.187 5.39062C191.849 5.39062 192.471 5.43876 193.053 5.53181C193.635 5.62486 194.139 5.76925 194.571 5.95536C194.999 6.14467 195.34 6.38853 195.591 6.69015C195.841 6.99177 195.968 7.34794 195.968 7.75865C195.968 8.16936 195.892 8.49344 195.741 8.77581C195.587 9.05818 195.397 9.29562 195.163 9.48493C195.019 9.3983 194.805 9.30845 194.517 9.2154C194.23 9.12235 193.915 9.03571 193.578 8.95871C193.237 8.8817 192.892 8.81752 192.545 8.76618C192.197 8.71484 191.876 8.68917 191.592 8.68917C191 8.68917 190.545 8.75335 190.221 8.8817C189.9 9.01005 189.736 9.21219 189.736 9.48814C189.736 9.67746 189.826 9.83147 190.003 9.9534C190.184 10.0753 190.522 10.1844 191.023 10.2903L191.856 10.47C193.574 10.8486 194.798 11.3684 195.524 12.0294C196.249 12.6904 196.61 13.5472 196.61 14.5932H196.614Z" fill="#2E6BC7"/>
<path d="M198.844 16.3708C198.844 15.6649 199.072 15.0873 199.53 14.6317C199.988 14.1761 200.616 13.9483 201.422 13.9483C202.228 13.9483 202.86 14.1761 203.318 14.6317C203.776 15.0873 204.004 15.6681 204.004 16.3708C204.004 17.0735 203.776 17.6575 203.318 18.1099C202.86 18.5656 202.231 18.7934 201.422 18.7934C200.613 18.7934 199.984 18.5656 199.53 18.1099C199.072 17.6543 198.844 17.0735 198.844 16.3708ZM203.786 3.37557C203.786 3.77024 203.776 4.34139 203.759 5.08902C203.743 5.83664 203.706 6.64524 203.652 7.51159C203.599 8.38115 203.525 9.2475 203.438 10.1171C203.351 10.9866 203.241 11.7375 203.117 12.3728C203.047 12.4241 202.937 12.4755 202.796 12.5268C202.653 12.5781 202.502 12.6198 202.338 12.6551C202.178 12.6904 202.017 12.7161 201.854 12.7322C201.69 12.7482 201.549 12.7578 201.422 12.7578C200.904 12.7578 200.469 12.6808 200.118 12.5268C199.767 12.3728 199.55 12.0712 199.459 11.6251C199.369 11.2305 199.292 10.6272 199.232 9.81865C199.169 9.01005 199.112 8.13408 199.058 7.18751C199.005 6.24415 198.965 5.304 198.938 4.37668C198.911 3.44937 198.898 2.65682 198.898 2.00545C199.255 1.81614 199.663 1.66533 200.122 1.55302C200.58 1.44072 201.031 1.38617 201.479 1.38617C202.215 1.38617 202.783 1.54981 203.184 1.8771C203.586 2.20439 203.79 2.70174 203.79 3.37236L203.786 3.37557Z" fill="#2E6BC7"/>
</g>
<defs>
<clipPath id="clip0_2515_5517">
<rect width="204" height="23" fill="white"/>
</clipPath>
</defs>
</svg>
