<svg width="204" height="38" viewBox="0 0 204 38" fill="none" xmlns="http://www.w3.org/2000/svg">
<g clip-path="url(#clip0_2515_5872)">
<path d="M75.0015 7.42913C75.0015 6.33558 75.1728 5.36563 75.5153 4.52465C75.8579 3.68367 76.3263 2.97703 76.9205 2.41011C77.5146 1.84318 78.2132 1.4106 79.0161 1.11505C79.819 0.819497 80.6889 0.674408 81.6256 0.674408C82.5624 0.674408 83.4322 0.822184 84.2351 1.11505C85.0381 1.4106 85.742 1.8405 86.3415 2.41011C86.941 2.97703 87.4147 3.68367 87.7573 4.52465C88.0999 5.36563 88.2712 6.33558 88.2712 7.42913C88.2712 8.52267 88.1026 9.49531 87.768 10.3444C87.4335 11.1934 86.9678 11.9027 86.3736 12.4696C85.7794 13.0366 85.0782 13.4691 84.2673 13.7647C83.4563 14.0603 82.5758 14.2053 81.6256 14.2053C80.6755 14.2053 79.7949 14.0549 78.984 13.754C78.173 13.453 77.4745 13.0151 76.8883 12.4374C76.3022 11.8624 75.8392 11.1531 75.5046 10.3121C75.1701 9.47113 75.0015 8.50924 75.0015 7.42913ZM78.7752 7.42913C78.7752 8.70538 79.0348 9.65921 79.5514 10.2906C80.0679 10.922 80.7611 11.2364 81.6256 11.2364C82.4901 11.2364 83.2047 10.9193 83.7213 10.2906C84.2378 9.65921 84.4974 8.70538 84.4974 7.42913C84.4974 6.15288 84.2432 5.22054 83.732 4.58914C83.2208 3.95773 82.5276 3.64337 81.647 3.64337C80.7665 3.64337 80.0867 3.95504 79.5621 4.58108C79.0375 5.20442 78.7752 6.15557 78.7752 7.43182V7.42913Z" fill="#707070"/>
<path d="M100.639 8.71343C100.639 9.58397 100.505 10.3578 100.24 11.0375C99.9751 11.7173 99.6004 12.2896 99.1186 12.7518C98.6369 13.2139 98.0614 13.5659 97.3897 13.805C96.7179 14.0441 95.9712 14.1623 95.1468 14.1623C94.3225 14.1623 93.5757 14.0361 92.904 13.7835C92.2322 13.5309 91.6568 13.1709 91.175 12.7007C90.6932 12.2305 90.3185 11.6582 90.0536 10.9865C89.7886 10.3121 89.6548 9.55441 89.6548 8.71343C89.6548 7.87245 89.7886 7.13626 90.0536 6.46186C90.3185 5.78746 90.6932 5.21785 91.175 4.74765C91.6568 4.27746 92.2349 3.91742 92.904 3.66486C93.5757 3.41229 94.3225 3.28601 95.1468 3.28601C95.9712 3.28601 96.7179 3.41498 97.3897 3.6756C98.0614 3.93623 98.6369 4.29895 99.1186 4.76915C99.6004 5.23934 99.9751 5.81164 100.24 6.48335C100.505 7.15775 100.639 7.89932 100.639 8.71343ZM93.3027 8.71343C93.3027 9.57053 93.466 10.2261 93.7952 10.6802C94.1244 11.137 94.5821 11.3653 95.1682 11.3653C95.7544 11.3653 96.2067 11.1343 96.5198 10.6721C96.8356 10.21 96.9909 9.5571 96.9909 8.71612C96.9909 7.87514 96.8303 7.22492 96.5091 6.77084C96.1879 6.31408 95.7329 6.0857 95.1468 6.0857C94.5607 6.0857 94.1057 6.31408 93.7845 6.77084C93.4633 7.22761 93.3027 7.87514 93.3027 8.71612V8.71343Z" fill="#707070"/>
<path d="M107.052 3.28333C107.889 3.28333 108.668 3.3908 109.388 3.60843C110.108 3.82607 110.726 4.15924 111.243 4.60794C111.76 5.05664 112.166 5.62088 112.458 6.30065C112.752 6.98042 112.897 7.79185 112.897 8.73224C112.897 9.67264 112.771 10.4169 112.52 11.0886C112.268 11.7603 111.912 12.3272 111.452 12.7813C110.991 13.2381 110.435 13.5766 109.784 13.8023C109.134 14.0253 108.411 14.1382 107.614 14.1382C107.014 14.1382 106.455 14.0468 105.936 13.8641V17.357C105.796 17.4 105.572 17.4457 105.264 17.494C104.956 17.5424 104.643 17.5666 104.319 17.5666C103.995 17.5666 103.736 17.5451 103.492 17.5021C103.248 17.4591 103.04 17.3758 102.874 17.2495C102.705 17.1232 102.579 16.9513 102.496 16.7337C102.413 16.516 102.371 16.2312 102.371 15.8819V5.78746C102.371 5.40862 102.451 5.09963 102.611 4.8605C102.772 4.62137 102.992 4.40374 103.273 4.2076C103.706 3.92817 104.244 3.70247 104.886 3.5332C105.529 3.36393 106.249 3.28064 107.046 3.28064L107.052 3.28333ZM107.095 11.3224C108.534 11.3224 109.254 10.4599 109.254 8.73493C109.254 7.83752 109.075 7.17119 108.719 6.73592C108.363 6.30065 107.849 6.08302 107.177 6.08302C106.913 6.08302 106.674 6.11526 106.466 6.17705C106.257 6.23885 106.075 6.31408 105.92 6.39738V11.0268C106.088 11.1101 106.267 11.1826 106.466 11.2364C106.661 11.2928 106.87 11.3197 107.095 11.3197V11.3224Z" fill="#707070"/>
<path d="M123.236 10.7742C123.236 11.8409 122.837 12.6765 122.042 13.2784C121.245 13.8802 120.072 14.1839 118.52 14.1839C117.934 14.1839 117.388 14.1409 116.885 14.0576C116.382 13.9743 115.951 13.8426 115.595 13.668C115.239 13.4933 114.958 13.273 114.757 13.0043C114.554 12.7383 114.452 12.4213 114.452 12.0586C114.452 11.7227 114.522 11.4379 114.661 11.2068C114.8 10.9758 114.968 10.7823 115.164 10.6292C115.568 10.8549 116.034 11.0537 116.558 11.2283C117.083 11.403 117.688 11.4916 118.37 11.4916C118.804 11.4916 119.136 11.4298 119.366 11.3036C119.596 11.1773 119.711 11.008 119.711 10.7984C119.711 10.6023 119.628 10.4491 119.46 10.3363C119.291 10.2234 119.013 10.1321 118.622 10.0622L117.993 9.93595C116.778 9.69683 115.873 9.32335 115.279 8.81017C114.685 8.29698 114.388 7.56616 114.388 6.61233C114.388 6.09377 114.5 5.62357 114.722 5.20174C114.944 4.77991 115.26 4.43062 115.664 4.1485C116.068 3.86907 116.556 3.65143 117.12 3.49559C117.688 3.34244 118.311 3.26453 118.996 3.26453C119.513 3.26453 120 3.30214 120.452 3.38006C120.907 3.45798 121.301 3.57351 121.638 3.72666C121.973 3.8825 122.238 4.08133 122.436 4.32583C122.631 4.57033 122.73 4.8632 122.73 5.19905C122.73 5.53491 122.671 5.79822 122.551 6.02929C122.43 6.26036 122.28 6.45381 122.101 6.60696C121.989 6.5371 121.823 6.46456 121.598 6.38664C121.373 6.30872 121.13 6.23886 120.865 6.17706C120.6 6.11258 120.329 6.06153 120.056 6.01854C119.783 5.97555 119.534 5.95674 119.312 5.95674C118.852 5.95674 118.496 6.01048 118.244 6.11527C117.993 6.22005 117.867 6.38664 117.867 6.60964C117.867 6.76548 117.937 6.88908 118.076 6.98849C118.215 7.0879 118.48 7.17657 118.873 7.26255L119.524 7.41032C120.865 7.71931 121.82 8.14383 122.385 8.68389C122.95 9.22394 123.233 9.92252 123.233 10.7769L123.236 10.7742Z" fill="#707070"/>
<path d="M124.976 12.2251C124.976 11.6501 125.155 11.1773 125.511 10.8038C125.867 10.433 126.359 10.2449 126.988 10.2449C127.617 10.2449 128.11 10.4303 128.466 10.8038C128.822 11.1746 129.001 11.6501 129.001 12.2251C129.001 12.8001 128.822 13.273 128.466 13.6465C128.11 14.0173 127.617 14.2053 126.988 14.2053C126.359 14.2053 125.867 14.0199 125.511 13.6465C125.155 13.2757 124.976 12.8028 124.976 12.2251ZM128.832 1.62017C128.832 1.94259 128.824 2.4101 128.811 3.02001C128.798 3.62992 128.768 4.29089 128.728 4.99753C128.685 5.70685 128.629 6.41349 128.559 7.12282C128.49 7.83214 128.404 8.44474 128.308 8.9633C128.252 9.00629 128.169 9.0466 128.056 9.08959C127.944 9.13258 127.826 9.1675 127.7 9.19437C127.574 9.22393 127.449 9.24274 127.323 9.25617C127.197 9.2696 127.085 9.27766 126.988 9.27766C126.584 9.27766 126.244 9.21587 125.971 9.08959C125.698 8.9633 125.527 8.7188 125.457 8.35339C125.388 8.03097 125.329 7.53928 125.278 6.881C125.23 6.22273 125.184 5.50534 125.142 4.73422C125.099 3.96309 125.069 3.19734 125.048 2.43965C125.026 1.68196 125.016 1.03712 125.016 0.502441C125.294 0.349291 125.613 0.225696 125.969 0.134343C126.325 0.0429908 126.678 -0.00268555 127.026 -0.00268555C127.598 -0.00268555 128.043 0.131657 128.356 0.397654C128.672 0.663651 128.827 1.07205 128.827 1.61748L128.832 1.62017Z" fill="#707070"/>
<path d="M4.9273 37.957C4.6891 37.957 4.41075 37.949 4.08958 37.9355C3.76841 37.9221 3.43653 37.8925 3.09395 37.8522C2.75137 37.8119 2.41414 37.7582 2.07691 37.6937C1.74235 37.6319 1.43457 37.5432 1.15354 37.4304C0.385406 37.1348 0 36.6243 0 35.8935V26.0651C0 25.7695 0.0802928 25.5438 0.240878 25.3799C0.401464 25.2187 0.620931 25.0897 0.901956 24.9903C1.37836 24.821 1.96985 24.7001 2.68446 24.6222C3.39639 24.5443 4.12973 24.5067 4.88448 24.5067C6.67233 24.5067 8.05069 24.8076 9.01421 25.4121C9.97772 26.0167 10.4595 26.949 10.4595 28.2118C10.4595 28.8432 10.2775 29.386 9.91349 29.8428C9.54949 30.2995 9.05971 30.6327 8.44681 30.8423C9.14535 31.0384 9.72881 31.3957 10.1972 31.9143C10.6656 32.4329 10.8984 33.0858 10.8984 33.8703C10.8984 35.2594 10.3845 36.2858 9.35679 36.9521C8.32904 37.6185 6.85165 37.9516 4.92463 37.9516L4.9273 37.957ZM3.565 29.8562H5.09592C5.69544 29.8562 6.13437 29.7433 6.40469 29.5203C6.67769 29.2973 6.81418 28.9668 6.81418 28.5316C6.81418 28.1527 6.65628 27.8518 6.34313 27.6261C6.02732 27.4031 5.55626 27.2903 4.9273 27.2903C4.71854 27.2903 4.47766 27.2983 4.20467 27.3117C3.93167 27.3252 3.71756 27.3467 3.565 27.3735V29.8562ZM3.565 34.9907C3.76038 35.0472 4.01196 35.0848 4.31975 35.1063C4.62754 35.1278 4.91927 35.1385 5.2003 35.1385C5.75967 35.1385 6.22269 35.023 6.59472 34.7919C6.96406 34.5608 7.15141 34.1981 7.15141 33.7091C7.15141 33.247 6.99618 32.9165 6.69107 32.7204C6.38328 32.5242 5.91491 32.4248 5.28594 32.4248H3.56768V34.9934L3.565 34.9907Z" fill="#707070"/>
<path d="M18.0282 37.957C17.2039 37.957 16.4384 37.8415 15.7319 37.6104C15.0253 37.3794 14.4124 37.0328 13.8878 36.5679C13.3632 36.1031 12.9511 35.5227 12.6513 34.8215C12.3515 34.1202 12.2017 33.298 12.2017 32.3603C12.2017 31.4226 12.3515 30.6381 12.6513 29.9717C12.9511 29.3054 13.3472 28.7573 13.837 28.3301C14.3267 27.9029 14.8861 27.5858 15.5151 27.3843C16.144 27.1801 16.7864 27.078 17.4421 27.078C18.1835 27.078 18.8579 27.1909 19.4655 27.4139C20.073 27.6396 20.5976 27.9485 21.0365 28.3408C21.4755 28.7331 21.8181 29.2033 22.0643 29.7514C22.3079 30.2995 22.431 30.896 22.431 31.5408C22.431 32.0191 22.2971 32.3818 22.0322 32.6344C21.7672 32.887 21.3952 33.0482 20.9215 33.118L15.7426 33.8972C15.8951 34.3593 16.2109 34.7086 16.6847 34.9397C17.1584 35.1708 17.7044 35.2863 18.32 35.2863C18.8927 35.2863 19.4334 35.2138 19.9446 35.066C20.4558 34.9182 20.8706 34.7462 21.1918 34.5501C21.4139 34.6898 21.604 34.886 21.7592 35.1385C21.9117 35.3911 21.9894 35.6571 21.9894 35.9392C21.9894 36.5706 21.695 37.0408 21.1088 37.3498C20.6618 37.5889 20.1587 37.7501 19.5993 37.8334C19.0399 37.9167 18.5154 37.9597 18.0282 37.9597V37.957ZM17.4421 29.6869C17.1076 29.6869 16.8158 29.7434 16.5723 29.8562C16.3287 29.969 16.128 30.1114 15.9754 30.2888C15.8202 30.4634 15.7051 30.6596 15.6302 30.8772C15.5525 31.0948 15.507 31.3152 15.4937 31.5408L19.0774 30.9524C19.0346 30.673 18.882 30.3909 18.6171 30.1114C18.3521 29.832 17.9613 29.6896 17.4421 29.6896V29.6869Z" fill="#707070"/>
<path d="M27.7116 34.1068C27.7116 34.4722 27.8267 34.7301 28.0569 34.886C28.2871 35.0418 28.6136 35.117 29.0311 35.117C29.2399 35.117 29.4567 35.1009 29.6815 35.0633C29.9036 35.0284 30.1017 34.9827 30.2676 34.9263C30.3934 35.0821 30.5005 35.2514 30.5915 35.4421C30.6825 35.6302 30.728 35.8586 30.728 36.1273C30.728 36.662 30.5299 37.0945 30.1311 37.4331C29.7323 37.7689 29.0311 37.9382 28.0248 37.9382C26.7963 37.9382 25.8488 37.6588 25.1851 37.0972C24.5213 36.5357 24.1895 35.6248 24.1895 34.362V25.3557C24.342 25.3127 24.5642 25.2671 24.8505 25.2187C25.1369 25.1703 25.4393 25.1461 25.7632 25.1461C26.3788 25.1461 26.8579 25.2536 27.1978 25.4713C27.5403 25.6889 27.7116 26.1483 27.7116 26.8496V28.1957H30.4576C30.5406 28.3516 30.6209 28.5423 30.6985 28.7734C30.7761 29.0045 30.8136 29.2597 30.8136 29.5418C30.8136 30.0335 30.7039 30.3882 30.4898 30.6058C30.273 30.8234 29.9839 30.9309 29.6199 30.9309H27.7116V34.1095V34.1068Z" fill="#707070"/>
<path d="M36.0969 34.1068C36.0969 34.4722 36.212 34.7301 36.4421 34.886C36.6723 35.0418 36.9988 35.117 37.4164 35.117C37.6251 35.117 37.8419 35.1009 38.0667 35.0633C38.2889 35.0284 38.4869 34.9827 38.6529 34.9263C38.7787 35.0821 38.8857 35.2514 38.9767 35.4421C39.0677 35.6302 39.1132 35.8586 39.1132 36.1273C39.1132 36.662 38.9152 37.0945 38.5164 37.4331C38.1176 37.7689 37.4164 37.9382 36.41 37.9382C35.1789 37.9382 34.2341 37.6588 33.5703 37.0972C32.9066 36.5357 32.5747 35.6248 32.5747 34.362V25.3557C32.7273 25.3127 32.9494 25.2671 33.2358 25.2187C33.5222 25.1703 33.8273 25.1461 34.1484 25.1461C34.764 25.1461 35.2431 25.2536 35.5857 25.4713C35.9283 25.6889 36.0996 26.1483 36.0996 26.8496V28.1957H38.8456C38.9285 28.3516 39.0088 28.5423 39.0865 28.7734C39.1641 29.0045 39.2015 29.2597 39.2015 29.5418C39.2015 30.0335 39.0945 30.3882 38.8777 30.6058C38.6609 30.8234 38.3718 30.9309 38.0079 30.9309H36.0996V34.1095L36.0969 34.1068Z" fill="#707070"/>
<path d="M46.1791 37.957C45.3548 37.957 44.5893 37.8415 43.8827 37.6104C43.1762 37.3794 42.5633 37.0328 42.0387 36.5679C41.5141 36.1031 41.1019 35.5227 40.8022 34.8215C40.5024 34.1202 40.3525 33.298 40.3525 32.3603C40.3525 31.4226 40.5024 30.6381 40.8022 29.9717C41.1019 29.3054 41.4981 28.7573 41.9878 28.3301C42.4776 27.9029 43.037 27.5858 43.666 27.3843C44.2949 27.1801 44.9373 27.078 45.593 27.078C46.3344 27.078 47.0088 27.1909 47.6164 27.4139C48.2239 27.6396 48.7485 27.9485 49.1874 28.3408C49.6264 28.7331 49.9689 29.2033 50.2152 29.7514C50.4587 30.2995 50.5818 30.896 50.5818 31.5408C50.5818 32.0191 50.448 32.3818 50.1831 32.6344C49.9181 32.887 49.5461 33.0482 49.0723 33.118L43.8935 33.8972C44.046 34.3593 44.3618 34.7086 44.8356 34.9397C45.3093 35.1708 45.8553 35.2863 46.4709 35.2863C47.0436 35.2863 47.5842 35.2138 48.0954 35.066C48.6066 34.9182 49.0215 34.7462 49.3427 34.5501C49.5648 34.6898 49.7548 34.886 49.9101 35.1385C50.0626 35.3911 50.1402 35.6571 50.1402 35.9392C50.1402 36.5706 49.8458 37.0408 49.2597 37.3498C48.8127 37.5889 48.3096 37.7501 47.7502 37.8334C47.1908 37.9167 46.6662 37.9597 46.1791 37.9597V37.957ZM45.593 29.6869C45.2584 29.6869 44.9667 29.7434 44.7231 29.8562C44.4796 29.969 44.2789 30.1114 44.1263 30.2888C43.9711 30.4634 43.856 30.6596 43.781 30.8772C43.7034 31.0948 43.6579 31.3152 43.6445 31.5408L47.2283 30.9524C47.1855 30.673 47.0329 30.3909 46.7679 30.1114C46.503 29.832 46.1122 29.6896 45.593 29.6896V29.6869Z" fill="#707070"/>
<path d="M55.8624 37.5997C55.7232 37.6427 55.5037 37.683 55.2013 37.7259C54.9015 37.7689 54.5884 37.7904 54.2672 37.7904C53.946 37.7904 53.6838 37.7689 53.4402 37.7259C53.1966 37.683 52.9879 37.5997 52.8219 37.4734C52.6533 37.3471 52.5249 37.1751 52.4339 36.9575C52.3429 36.7399 52.2974 36.4551 52.2974 36.1058V29.7917C52.2974 29.4693 52.3562 29.1925 52.4767 28.9615C52.5971 28.7304 52.7657 28.5235 52.9906 28.3408C53.2127 28.1581 53.4911 27.9942 53.8176 27.8464C54.1468 27.6987 54.5001 27.5697 54.8774 27.4568C55.2548 27.344 55.6456 27.258 56.0524 27.1935C56.4565 27.129 56.8634 27.0995 57.2675 27.0995C57.9393 27.0995 58.4692 27.2285 58.86 27.4891C59.2507 27.7497 59.4461 28.1742 59.4461 28.7626C59.4461 28.9588 59.4167 29.1522 59.3631 29.3403C59.3069 29.5284 59.2373 29.7004 59.1544 29.8562C58.86 29.8562 58.5602 29.8696 58.2524 29.8992C57.9446 29.9287 57.6449 29.969 57.3505 30.0255C57.0561 30.0819 56.7804 30.141 56.5234 30.2055C56.2638 30.2673 56.0444 30.3425 55.8624 30.4258V37.6023V37.5997Z" fill="#707070"/>
<path d="M68.7332 37.5997C68.578 37.6266 68.3532 37.6669 68.0534 37.7152C67.7537 37.7636 67.4485 37.7878 67.1407 37.7878C66.833 37.7878 66.5573 37.7663 66.3137 37.7233C66.0702 37.6803 65.8641 37.597 65.6955 37.4707C65.5269 37.3444 65.3984 37.1725 65.3074 36.9548C65.2164 36.7372 65.1709 36.4524 65.1709 36.1031V23.8968C65.3235 23.8699 65.551 23.8296 65.8534 23.7813C66.1531 23.7329 66.4583 23.7087 66.7661 23.7087C67.0738 23.7087 67.3495 23.7302 67.5931 23.7705C67.8366 23.8135 68.0427 23.8968 68.2113 24.0231C68.3799 24.1494 68.5084 24.3213 68.5994 24.5389C68.6904 24.7566 68.7359 25.0414 68.7359 25.3907V37.597L68.7332 37.5997Z" fill="#707070"/>
<path d="M70.9761 27.5401C71.1152 27.4971 71.3347 27.4568 71.6372 27.4138C71.9369 27.3709 72.2474 27.3494 72.5712 27.3494C72.8951 27.3494 73.1547 27.3709 73.3982 27.4138C73.6418 27.4568 73.8479 27.5401 74.0165 27.6664C74.1851 27.7927 74.3136 27.9647 74.4046 28.1823C74.4956 28.3999 74.5411 28.6847 74.5411 29.034V33.5587C74.5411 34.1336 74.6802 34.5447 74.9613 34.7892C75.2396 35.0337 75.6464 35.1573 76.1764 35.1573C76.4975 35.1573 76.7598 35.1305 76.9632 35.074C77.1667 35.0176 77.3219 34.9612 77.4343 34.9048V27.5401C77.5735 27.4971 77.7929 27.4568 78.0954 27.4138C78.3951 27.3709 78.7056 27.3494 79.0294 27.3494C79.3533 27.3494 79.6129 27.3709 79.8565 27.4138C80.1 27.4568 80.3061 27.5401 80.4747 27.6664C80.6433 27.7927 80.7718 27.9647 80.8628 28.1823C80.9538 28.3999 80.9993 28.6847 80.9993 29.034V35.4314C80.9993 36.1326 80.7049 36.6593 80.1188 37.0086C79.629 37.3175 79.0455 37.5513 78.3684 37.7125C77.6912 37.8737 76.9525 37.9543 76.1576 37.9543C75.4029 37.9543 74.707 37.871 74.0727 37.7018C73.4357 37.5325 72.887 37.2746 72.4267 36.9226C71.9663 36.5733 71.6104 36.1192 71.3588 35.5657C71.1072 35.0122 70.9814 34.3432 70.9814 33.556V27.5374L70.9761 27.5401Z" fill="#707070"/>
<path d="M88.9218 29.8965C88.5712 29.8965 88.2393 29.9529 87.9262 30.0658C87.6103 30.1786 87.34 30.3425 87.1098 30.5602C86.8797 30.7778 86.695 31.0465 86.5532 31.3689C86.414 31.6913 86.3444 32.0702 86.3444 32.5054C86.3444 33.376 86.5933 34.0289 87.0884 34.4614C87.5836 34.8967 88.1884 35.1143 88.9004 35.1143C89.3206 35.1143 89.6819 35.066 89.9897 34.9666C90.2975 34.8698 90.5705 34.7624 90.806 34.6522C91.0843 34.8484 91.2958 35.0633 91.435 35.2944C91.5741 35.5254 91.6437 35.8022 91.6437 36.1246C91.6437 36.6996 91.3707 37.1456 90.8274 37.46C90.2814 37.777 89.5267 37.9328 88.5631 37.9328C87.6826 37.9328 86.885 37.8039 86.1731 37.5433C85.4612 37.2826 84.8483 36.9199 84.3397 36.4497C83.8285 35.9795 83.4351 35.4153 83.1541 34.757C82.8731 34.0987 82.7339 33.3679 82.7339 32.5672C82.7339 31.6403 82.8838 30.8315 83.1835 30.1356C83.4833 29.4397 83.8928 28.8701 84.4093 28.4214C84.9259 27.9727 85.5227 27.6369 86.2025 27.4112C86.8797 27.1882 87.597 27.0753 88.3517 27.0753C89.358 27.0753 90.1342 27.258 90.6775 27.6234C91.2235 27.9888 91.4938 28.459 91.4938 29.034C91.4938 29.3 91.4296 29.5499 91.3038 29.781C91.178 30.012 91.0308 30.2135 90.8649 30.3801C90.6267 30.2673 90.3403 30.1598 90.0057 30.055C89.6712 29.9502 89.3072 29.8965 88.9164 29.8965H88.9218Z" fill="#707070"/>
<path d="M103.385 35.7673C103.316 36.4282 103.123 36.9307 102.81 37.2826C102.494 37.6319 102.036 37.8093 101.437 37.8093C100.99 37.8093 100.591 37.7018 100.243 37.4841C99.8924 37.2665 99.5151 36.8984 99.1109 36.3799L97.0367 33.7709V37.5997C96.8815 37.6266 96.6566 37.6669 96.3542 37.7152C96.0544 37.7636 95.7493 37.7878 95.4415 37.7878C95.1337 37.7878 94.8581 37.7663 94.6145 37.7233C94.371 37.6803 94.1649 37.597 93.9963 37.4707C93.8277 37.3444 93.6992 37.1725 93.6082 36.9548C93.5172 36.7372 93.4717 36.4524 93.4717 36.1031V23.9183C93.6242 23.8753 93.8517 23.8296 94.1542 23.7813C94.4539 23.7329 94.759 23.7087 95.0668 23.7087C95.3746 23.7087 95.6503 23.7302 95.8939 23.7705C96.1374 23.8135 96.3435 23.8968 96.5121 24.0231C96.6807 24.1494 96.8092 24.3213 96.9002 24.5389C96.9912 24.7566 97.0367 25.0414 97.0367 25.3907V30.9471L100.642 27.2446C101.367 27.2446 101.951 27.4058 102.392 27.7282C102.831 28.0506 103.053 28.459 103.053 28.9481C103.053 29.1576 103.018 29.3511 102.949 29.5257C102.879 29.7004 102.77 29.8804 102.625 30.0631C102.478 30.2458 102.291 30.4392 102.06 30.6408C101.83 30.845 101.56 31.0787 101.252 31.3447L100.037 32.398L103.391 35.7646L103.385 35.7673Z" fill="#707070"/>
<path d="M115.71 31.1378C115.71 30.7026 115.587 30.3828 115.343 30.1813C115.1 29.9771 114.768 29.875 114.348 29.875C114.069 29.875 113.791 29.9099 113.521 29.9798C113.248 30.0497 113.015 30.1544 112.819 30.2942V37.597C112.68 37.64 112.461 37.6803 112.158 37.7233C111.859 37.7663 111.545 37.7878 111.224 37.7878C110.903 37.7878 110.641 37.7663 110.397 37.7233C110.154 37.6803 109.948 37.597 109.779 37.4707C109.61 37.3444 109.482 37.1725 109.391 36.9548C109.3 36.7372 109.254 36.4524 109.254 36.1031V29.789C109.254 29.4102 109.335 29.1012 109.495 28.8621C109.656 28.6229 109.875 28.4053 110.156 28.2092C110.633 27.8733 111.23 27.5993 111.95 27.3897C112.67 27.1801 113.47 27.0726 114.35 27.0726C115.929 27.0726 117.145 27.4192 117.998 28.1151C118.849 28.8083 119.278 29.7729 119.278 31.0089V37.5943C119.138 37.6373 118.919 37.6776 118.617 37.7206C118.317 37.7636 118.004 37.7851 117.682 37.7851C117.361 37.7851 117.099 37.7636 116.855 37.7206C116.612 37.6776 116.406 37.5943 116.237 37.468C116.069 37.3417 115.94 37.1698 115.849 36.9521C115.758 36.7345 115.713 36.4497 115.713 36.1004V31.1351L115.71 31.1378Z" fill="#707070"/>
<path d="M126.863 37.957C126.038 37.957 125.273 37.8415 124.566 37.6104C123.86 37.3794 123.247 37.0328 122.722 36.5679C122.198 36.1031 121.786 35.5227 121.486 34.8215C121.186 34.1202 121.036 33.298 121.036 32.3603C121.036 31.4226 121.186 30.6381 121.486 29.9717C121.786 29.3054 122.182 28.7573 122.671 28.3301C123.161 27.9029 123.721 27.5858 124.35 27.3843C124.979 27.1801 125.621 27.078 126.277 27.078C127.018 27.078 127.692 27.1909 128.3 27.4139C128.908 27.6396 129.432 27.9485 129.871 28.3408C130.31 28.7331 130.653 29.2033 130.899 29.7514C131.142 30.2995 131.265 30.896 131.265 31.5408C131.265 32.0191 131.132 32.3818 130.867 32.6344C130.602 32.887 130.23 33.0482 129.756 33.118L124.577 33.8972C124.73 34.3593 125.045 34.7086 125.519 34.9397C125.993 35.1708 126.539 35.2863 127.154 35.2863C127.727 35.2863 128.268 35.2138 128.779 35.066C129.29 34.9182 129.705 34.7462 130.026 34.5501C130.248 34.6898 130.438 34.886 130.594 35.1385C130.746 35.3911 130.824 35.6571 130.824 35.9392C130.824 36.5706 130.529 37.0408 129.943 37.3498C129.496 37.5889 128.993 37.7501 128.434 37.8334C127.874 37.9167 127.35 37.9597 126.863 37.9597V37.957ZM126.277 29.6869C125.942 29.6869 125.65 29.7434 125.407 29.8562C125.163 29.969 124.962 30.1114 124.81 30.2888C124.655 30.4634 124.54 30.6596 124.465 30.8772C124.387 31.0948 124.342 31.3152 124.328 31.5408L127.912 30.9524C127.869 30.673 127.716 30.3909 127.452 30.1114C127.187 29.832 126.796 29.6896 126.277 29.6896V29.6869Z" fill="#707070"/>
<path d="M132.312 29.0555C132.424 28.5235 132.644 28.0882 132.973 27.7497C133.302 27.4138 133.709 27.2446 134.199 27.2446C134.659 27.2446 135.015 27.3574 135.267 27.5804C135.518 27.8061 135.797 28.1205 136.104 28.5262L137.445 30.2941L139.688 27.2419C140.456 27.2419 141.064 27.3789 141.511 27.653C141.958 27.927 142.183 28.2951 142.183 28.7573C142.183 28.94 142.159 29.1039 142.11 29.2516C142.062 29.3994 141.987 29.5499 141.891 29.703C141.792 29.8589 141.666 30.0335 141.514 30.2297C141.358 30.4258 141.179 30.6569 140.968 30.9229L139.584 32.4812L142.33 36.1219C142.26 36.6566 142.049 37.0757 141.701 37.3847C141.35 37.6937 140.933 37.8468 140.443 37.8468C139.91 37.8334 139.49 37.6776 139.174 37.3847C138.861 37.0892 138.556 36.7318 138.262 36.3127L137.13 34.6925L134.991 37.7851C134.922 37.7851 134.844 37.7877 134.761 37.7958C134.678 37.8039 134.606 37.8065 134.552 37.8065C133.84 37.8065 133.297 37.6588 132.928 37.3659C132.558 37.0704 132.371 36.7076 132.371 36.2724C132.371 35.9365 132.451 35.6383 132.612 35.3776C132.772 35.117 133.048 34.765 133.439 34.3137L135.117 32.3576L132.307 29.0528L132.312 29.0555Z" fill="#707070"/>
<path d="M147.404 34.1068C147.404 34.4722 147.519 34.7301 147.749 34.886C147.979 35.0418 148.306 35.117 148.723 35.117C148.932 35.117 149.149 35.1009 149.374 35.0633C149.596 35.0284 149.794 34.9827 149.96 34.9263C150.086 35.0821 150.193 35.2514 150.284 35.4421C150.375 35.6302 150.42 35.8586 150.42 36.1273C150.42 36.662 150.222 37.0945 149.823 37.4331C149.425 37.7689 148.723 37.9382 147.717 37.9382C146.489 37.9382 145.541 37.6588 144.877 37.0972C144.214 36.5357 143.882 35.6248 143.882 34.362V25.3557C144.034 25.3127 144.257 25.2671 144.543 25.2187C144.829 25.1703 145.132 25.1461 145.456 25.1461C146.071 25.1461 146.55 25.2536 146.89 25.4713C147.233 25.6889 147.404 26.1483 147.404 26.8496V28.1957H150.15C150.233 28.3516 150.313 28.5423 150.391 28.7734C150.469 29.0045 150.506 29.2597 150.506 29.5418C150.506 30.0335 150.396 30.3882 150.182 30.6058C149.965 30.8234 149.676 30.9309 149.312 30.9309H147.404V34.1095V34.1068Z" fill="#707070"/>
<path d="M159.981 34.1068C159.981 34.4722 160.096 34.7301 160.326 34.886C160.556 35.0418 160.883 35.117 161.3 35.117C161.509 35.117 161.726 35.1009 161.951 35.0633C162.173 35.0284 162.371 34.9827 162.537 34.9263C162.662 35.0821 162.77 35.2514 162.861 35.4421C162.952 35.6302 162.997 35.8586 162.997 36.1273C162.997 36.662 162.799 37.0945 162.4 37.4331C162.001 37.7689 161.3 37.9382 160.294 37.9382C159.063 37.9382 158.118 37.6588 157.454 37.0972C156.79 36.5357 156.458 35.6248 156.458 34.362V25.3557C156.611 25.3127 156.833 25.2671 157.12 25.2187C157.406 25.1703 157.711 25.1461 158.032 25.1461C158.648 25.1461 159.127 25.2536 159.469 25.4713C159.812 25.6889 159.983 26.1483 159.983 26.8496V28.1957H162.729C162.812 28.3516 162.893 28.5423 162.97 28.7734C163.048 29.0045 163.085 29.2597 163.085 29.5418C163.085 30.0335 162.978 30.3882 162.761 30.6058C162.545 30.8234 162.256 30.9309 161.892 30.9309H159.983V34.1095L159.981 34.1068Z" fill="#707070"/>
<path d="M164.718 24.5524C164.718 24.0204 164.898 23.5717 165.254 23.2063C165.61 22.8408 166.081 22.6581 166.669 22.6581C167.258 22.6581 167.729 22.8408 168.085 23.2063C168.441 23.5717 168.62 24.0204 168.62 24.5524C168.62 25.0844 168.441 25.5357 168.085 25.8985C167.729 26.2639 167.258 26.4466 166.669 26.4466C166.081 26.4466 165.612 26.2639 165.254 25.8985C164.898 25.5331 164.718 25.0844 164.718 24.5524ZM168.449 37.5997C168.294 37.6265 168.069 37.6668 167.767 37.7152C167.467 37.7636 167.162 37.7877 166.854 37.7877C166.546 37.7877 166.271 37.7663 166.027 37.7233C165.783 37.6803 165.577 37.597 165.409 37.4707C165.24 37.3444 165.112 37.1725 165.021 36.9548C164.93 36.7372 164.884 36.4524 164.884 36.1031V27.5374C165.037 27.5106 165.264 27.4703 165.567 27.4219C165.866 27.3735 166.172 27.3494 166.479 27.3494C166.787 27.3494 167.063 27.3709 167.306 27.4139C167.55 27.4568 167.756 27.5401 167.925 27.6664C168.093 27.7927 168.222 27.9647 168.313 28.1823C168.404 28.3999 168.449 28.6847 168.449 29.034V37.5997Z" fill="#707070"/>
<path d="M175.598 27.078C176.171 27.078 176.733 27.1586 177.284 27.3198C177.835 27.481 178.314 27.7228 178.721 28.0453C179.141 27.7658 179.612 27.5321 180.137 27.3494C180.662 27.1667 181.293 27.0753 182.035 27.0753C182.565 27.0753 183.086 27.1452 183.595 27.2849C184.106 27.4246 184.559 27.6449 184.957 27.9485C185.356 28.2495 185.675 28.6498 185.91 29.1469C186.148 29.6439 186.266 30.2512 186.266 30.9659V37.5943C186.127 37.6373 185.907 37.6776 185.605 37.7206C185.305 37.7636 184.992 37.7851 184.671 37.7851C184.35 37.7851 184.087 37.7636 183.844 37.7206C183.6 37.6776 183.394 37.5943 183.226 37.468C183.057 37.3417 182.929 37.1698 182.838 36.9522C182.747 36.7345 182.701 36.4497 182.701 36.1004V31.0707C182.701 30.6488 182.583 30.3452 182.345 30.1544C182.107 29.9664 181.786 29.8696 181.382 29.8696C181.186 29.8696 180.977 29.9153 180.753 30.0067C180.528 30.098 180.362 30.1921 180.249 30.2915C180.263 30.3479 180.271 30.3989 180.271 30.45V37.5943C180.116 37.6373 179.891 37.6776 179.588 37.7206C179.289 37.7636 178.984 37.7851 178.676 37.7851C178.368 37.7851 178.092 37.7636 177.849 37.7206C177.605 37.6776 177.399 37.5943 177.23 37.468C177.062 37.3417 176.933 37.1698 176.842 36.9522C176.751 36.7345 176.706 36.4497 176.706 36.1004V31.0707C176.706 30.6488 176.577 30.3452 176.318 30.1544C176.058 29.9664 175.748 29.8696 175.384 29.8696C175.132 29.8696 174.915 29.9073 174.733 29.9852C174.551 30.0631 174.399 30.1356 174.273 30.2055V37.5916C174.134 37.6346 173.914 37.6749 173.612 37.7179C173.312 37.7609 172.999 37.7824 172.678 37.7824C172.357 37.7824 172.094 37.7609 171.851 37.7179C171.607 37.6749 171.399 37.5916 171.233 37.4653C171.064 37.3391 170.936 37.1671 170.845 36.9495C170.754 36.7318 170.708 36.447 170.708 36.0977V29.7434C170.708 29.3645 170.788 29.0636 170.949 28.8379C171.109 28.6149 171.329 28.4026 171.61 28.2065C172.084 27.8706 172.675 27.5966 173.382 27.387C174.088 27.1774 174.824 27.0699 175.592 27.0699L175.598 27.078Z" fill="#707070"/>
<path d="M193.835 37.957C193.011 37.957 192.245 37.8415 191.539 37.6104C190.832 37.3794 190.219 37.0328 189.694 36.5679C189.17 36.1058 188.758 35.5227 188.458 34.8215C188.158 34.1202 188.008 33.298 188.008 32.3603C188.008 31.4226 188.158 30.6381 188.458 29.9717C188.758 29.3054 189.154 28.7573 189.644 28.3301C190.133 27.9029 190.693 27.5858 191.322 27.3843C191.951 27.1801 192.593 27.078 193.251 27.078C193.993 27.078 194.667 27.1909 195.275 27.4139C195.882 27.6396 196.407 27.9485 196.846 28.3408C197.285 28.7331 197.627 29.2033 197.874 29.7514C198.117 30.2995 198.24 30.896 198.24 31.5408C198.24 32.0191 198.106 32.3818 197.841 32.6344C197.577 32.887 197.204 33.0482 196.731 33.118L191.555 33.8972C191.707 34.3593 192.023 34.7086 192.497 34.9397C192.97 35.1708 193.516 35.2863 194.132 35.2863C194.705 35.2863 195.245 35.2138 195.757 35.066C196.268 34.9182 196.683 34.7462 197.004 34.5501C197.226 34.6898 197.416 34.886 197.568 35.1385C197.721 35.3911 197.799 35.6571 197.799 35.9392C197.799 36.5706 197.504 37.0408 196.918 37.3498C196.471 37.5889 195.968 37.7501 195.409 37.8334C194.849 37.9167 194.325 37.9597 193.838 37.9597L193.835 37.957ZM193.249 29.6869C192.914 29.6869 192.622 29.7434 192.379 29.8562C192.135 29.969 191.935 30.1114 191.782 30.2888C191.627 30.4634 191.512 30.6596 191.437 30.8772C191.359 31.0948 191.314 31.3152 191.3 31.5408L194.884 30.9524C194.841 30.673 194.689 30.3909 194.424 30.1114C194.159 29.832 193.765 29.6896 193.249 29.6896V29.6869Z" fill="#707070"/>
<path d="M199.978 36.0198C199.978 35.4448 200.157 34.9719 200.513 34.5985C200.869 34.2277 201.361 34.0396 201.99 34.0396C202.619 34.0396 203.112 34.225 203.468 34.5985C203.824 34.9693 204.003 35.4448 204.003 36.0198C204.003 36.5948 203.824 37.0677 203.468 37.4411C203.112 37.8119 202.619 38 201.99 38C201.361 38 200.869 37.8146 200.513 37.4411C200.157 37.0704 199.978 36.5975 199.978 36.0198ZM203.834 25.4148C203.834 25.7373 203.826 26.2048 203.813 26.8147C203.799 27.4246 203.77 28.0856 203.73 28.7922C203.687 29.5015 203.631 30.2082 203.561 30.9175C203.492 31.6268 203.406 32.2394 203.31 32.758C203.253 32.801 203.171 32.8413 203.058 32.8843C202.946 32.9273 202.828 32.9622 202.702 32.9891C202.576 33.0186 202.451 33.0374 202.325 33.0508C202.199 33.0643 202.087 33.0723 201.99 33.0723C201.583 33.0723 201.246 33.0105 200.973 32.8843C200.7 32.758 200.529 32.5135 200.459 32.1481C200.39 31.8256 200.331 31.334 200.28 30.6757C200.232 30.0174 200.186 29.3 200.143 28.5289C200.101 27.7578 200.071 26.992 200.05 26.2343C200.028 25.4766 200.018 24.8318 200.018 24.2971C200.296 24.144 200.615 24.0204 200.97 23.929C201.326 23.8377 201.68 23.792 202.03 23.792C202.603 23.792 203.047 23.9263 203.361 24.1923C203.676 24.4583 203.832 24.8667 203.832 25.4122L203.834 25.4148Z" fill="#707070"/>
</g>
<defs>
<clipPath id="clip0_2515_5872">
<rect width="204" height="38" fill="white"/>
</clipPath>
</defs>
</svg>
