<svg width="717" height="50" viewBox="0 0 717 50" fill="none" xmlns="http://www.w3.org/2000/svg">
<g clip-path="url(#clip0_2499_6910)">
<path d="M0 22.8924C0 19.9698 0.464045 17.3775 1.39213 15.1299C2.32022 12.8824 3.5891 10.9938 5.19875 9.47865C6.80841 7.9635 8.70084 6.80739 10.8761 6.0175C13.0513 5.22761 15.4077 4.83984 17.9455 4.83984C20.4832 4.83984 22.8397 5.23479 25.0149 6.0175C27.1901 6.80739 29.0971 7.95632 30.7212 9.47865C32.3454 10.9938 33.6287 12.8824 34.5568 15.1299C35.4849 17.3775 35.949 19.9698 35.949 22.8924C35.949 25.815 35.4922 28.4145 34.5858 30.6836C33.6795 32.9527 32.4179 34.8485 30.8082 36.3636C29.1986 37.8788 27.2989 39.0349 25.1019 39.8248C22.905 40.6147 20.5195 41.0024 17.9455 41.0024C15.3715 41.0024 12.986 40.6003 10.789 39.796C8.59208 38.9918 6.69965 37.8213 5.11174 36.2774C3.52384 34.7407 2.26947 32.845 1.36313 30.5974C0.456794 28.3498 0 25.7791 0 22.8924ZM10.2235 22.8924C10.2235 26.3033 10.9268 28.8525 12.3262 30.54C13.7256 32.2275 15.6035 33.0676 17.9455 33.0676C20.2875 33.0676 22.2234 32.2203 23.6228 30.54C25.0222 28.8525 25.7255 26.3033 25.7255 22.8924C25.7255 19.4815 25.0367 16.9898 23.6518 15.3023C22.2669 13.6148 20.389 12.7746 18.0035 12.7746C15.618 12.7746 13.7763 13.6076 12.3552 15.2807C10.9341 16.9467 10.2235 19.4887 10.2235 22.8996V22.8924Z" fill="#707070"/>
<path d="M69.4544 26.3177C69.4544 28.6443 69.0919 30.7124 68.3741 32.5291C67.6563 34.3459 66.6412 35.8754 65.336 37.1105C64.0309 38.3456 62.472 39.2863 60.6521 39.9254C58.8322 40.5645 56.8092 40.8804 54.576 40.8804C52.3428 40.8804 50.3198 40.5429 48.4999 39.8679C46.68 39.1929 45.1211 38.2307 43.816 36.9741C42.5108 35.7174 41.4957 34.1879 40.7779 32.3927C40.0601 30.5903 39.6976 28.5653 39.6976 26.3177C39.6976 24.0701 40.0601 22.1026 40.7779 20.3002C41.4957 18.4978 42.5108 16.9755 43.816 15.7189C45.1211 14.4622 46.6872 13.5 48.4999 12.825C50.3198 12.15 52.3428 11.8125 54.576 11.8125C56.8092 11.8125 58.8322 12.1572 60.6521 12.8537C62.472 13.5503 64.0309 14.5197 65.336 15.7763C66.6412 17.0329 67.6563 18.5625 68.3741 20.3577C69.0919 22.1601 69.4544 24.142 69.4544 26.3177ZM49.5803 26.3177C49.5803 28.6084 50.0226 30.3605 50.9144 31.5741C51.8062 32.7948 53.0461 33.4052 54.634 33.4052C56.2219 33.4052 57.4473 32.7877 58.2956 31.5526C59.1512 30.3175 59.5717 28.5725 59.5717 26.3249C59.5717 24.0773 59.1367 22.3396 58.2666 21.126C57.3965 19.9053 56.1639 19.2949 54.576 19.2949C52.9881 19.2949 51.7555 19.9053 50.8854 21.126C50.0153 22.3468 49.5803 24.0773 49.5803 26.3249V26.3177Z" fill="#707070"/>
<path d="M86.8271 11.8124C89.0966 11.8124 91.2066 12.0996 93.157 12.6812C95.1074 13.2629 96.7823 14.1533 98.1817 15.3525C99.5811 16.5517 100.683 18.0597 101.474 19.8764C102.271 21.6932 102.663 23.8618 102.663 26.375C102.663 28.8883 102.322 30.8774 101.64 32.6726C100.959 34.4678 99.9944 35.983 98.7473 37.1965C97.5002 38.4173 95.992 39.322 94.2301 39.9252C92.4682 40.5212 90.5105 40.8228 88.3498 40.8228C86.7256 40.8228 85.2102 40.5787 83.8036 40.0904V49.4255C83.4266 49.5403 82.8175 49.6624 81.9837 49.7917C81.1498 49.9209 80.3015 49.9856 79.4242 49.9856C78.5468 49.9856 77.8435 49.9281 77.1837 49.8132C76.5239 49.6983 75.9583 49.4757 75.5088 49.1382C75.052 48.8007 74.7112 48.3412 74.4864 47.7595C74.2617 47.1779 74.1457 46.4167 74.1457 45.4832V18.5049C74.1457 17.4924 74.3632 16.6666 74.7982 16.0275C75.2333 15.3884 75.8278 14.8068 76.5891 14.2826C77.7638 13.5358 79.2212 12.9326 80.9613 12.4802C82.7015 12.0278 84.6519 11.8052 86.8126 11.8052L86.8271 11.8124ZM86.9431 33.2973C90.844 33.2973 92.7945 30.9923 92.7945 26.3822C92.7945 23.9838 92.3087 22.203 91.3443 21.0397C90.38 19.8764 88.9878 19.2948 87.1679 19.2948C86.4501 19.2948 85.8048 19.3809 85.2392 19.5461C84.6737 19.7112 84.1806 19.9123 83.7601 20.1349V32.5075C84.2169 32.7301 84.7027 32.9239 85.2392 33.0676C85.7685 33.2184 86.3341 33.2902 86.9431 33.2902V33.2973Z" fill="#707070"/>
<path d="M130.672 31.8326C130.672 34.6834 129.592 36.9166 127.438 38.5251C125.278 40.1336 122.102 40.945 117.896 40.945C116.308 40.945 114.829 40.8301 113.466 40.6075C112.103 40.3849 110.936 40.0331 109.971 39.5663C109.007 39.0996 108.246 38.5107 107.702 37.7927C107.151 37.0818 106.875 36.2344 106.875 35.265C106.875 34.3674 107.064 33.6062 107.441 32.9887C107.818 32.3711 108.275 31.8541 108.804 31.4448C109.899 32.048 111.16 32.5794 112.582 33.0461C114.003 33.5129 115.641 33.7499 117.49 33.7499C118.665 33.7499 119.564 33.5847 120.188 33.2472C120.811 32.9097 121.123 32.4573 121.123 31.8972C121.123 31.373 120.898 30.9637 120.441 30.6621C119.985 30.3605 119.23 30.1164 118.172 29.9297L116.468 29.5922C113.176 28.9531 110.725 27.9549 109.116 26.5834C107.506 25.2119 106.701 23.2587 106.701 20.7095C106.701 19.3236 107.006 18.067 107.608 16.9396C108.209 15.8122 109.065 14.8787 110.16 14.1247C111.255 13.3779 112.574 12.7962 114.104 12.3798C115.641 11.9705 117.331 11.7622 119.187 11.7622C120.586 11.7622 121.906 11.8627 123.131 12.071C124.364 12.2792 125.43 12.588 126.343 12.9973C127.25 13.4138 127.968 13.9452 128.504 14.5986C129.033 15.2521 129.302 16.0348 129.302 16.9324C129.302 17.83 129.142 18.5337 128.816 19.1513C128.49 19.7688 128.084 20.2858 127.598 20.6951C127.293 20.5084 126.844 20.3146 126.235 20.1063C125.626 19.8981 124.966 19.7114 124.248 19.5462C123.53 19.3739 122.798 19.2374 122.058 19.1225C121.319 19.0076 120.644 18.9574 120.043 18.9574C118.795 18.9574 117.831 19.101 117.15 19.3811C116.468 19.6611 116.127 20.1063 116.127 20.7023C116.127 21.1188 116.316 21.4491 116.693 21.7148C117.07 21.9805 117.788 22.2175 118.853 22.4473L120.615 22.8422C124.248 23.668 126.836 24.8026 128.366 26.2459C129.896 27.6893 130.665 29.5563 130.665 31.8398L130.672 31.8326Z" fill="#707070"/>
<path d="M135.385 35.7102C135.385 34.1735 135.871 32.9096 136.835 31.9115C137.8 30.9205 139.134 30.4179 140.838 30.4179C142.542 30.4179 143.876 30.9134 144.84 31.9115C145.804 32.9025 146.29 34.1735 146.29 35.7102C146.29 37.2468 145.804 38.5107 144.84 39.5088C143.876 40.4998 142.542 41.0024 140.838 41.0024C139.134 41.0024 137.8 40.5069 136.835 39.5088C135.871 38.5178 135.385 37.254 135.385 35.7102ZM145.833 7.36748C145.833 8.22918 145.812 9.47864 145.775 11.1087C145.739 12.7387 145.659 14.5052 145.551 16.3938C145.435 18.2895 145.282 20.1781 145.094 22.0738C144.905 23.9695 144.673 25.6067 144.412 26.9926C144.26 27.1075 144.035 27.2153 143.731 27.3301C143.426 27.445 143.107 27.5384 142.766 27.6102C142.425 27.6892 142.085 27.7395 141.744 27.7754C141.403 27.8113 141.099 27.8328 140.838 27.8328C139.743 27.8328 138.822 27.6676 138.082 27.3301C137.343 26.9926 136.879 26.3392 136.69 25.3626C136.502 24.5009 136.342 23.1868 136.204 21.4275C136.074 19.6682 135.951 17.7509 135.835 15.69C135.719 13.6292 135.639 11.5826 135.581 9.55763C135.523 7.53264 135.494 5.80925 135.494 4.38027C136.248 3.97096 137.111 3.64064 138.075 3.3965C139.039 3.15235 139.997 3.03027 140.939 3.03027C142.491 3.03027 143.694 3.38931 144.543 4.10021C145.398 4.81112 145.819 5.9026 145.819 7.3603L145.833 7.36748Z" fill="#707070"/>
<path d="M177.686 40.8877C177.04 40.8877 176.286 40.8662 175.416 40.8303C174.546 40.7944 173.647 40.7154 172.719 40.6077C171.791 40.5 170.877 40.3563 169.964 40.184C169.057 40.0188 168.224 39.7819 167.462 39.4803C165.381 38.6904 164.337 37.326 164.337 35.3729V9.11263C164.337 8.32274 164.555 7.71955 164.99 7.28152C165.425 6.85067 166.019 6.50599 166.781 6.2403C168.071 5.78791 169.674 5.46477 171.61 5.25653C173.538 5.04829 175.525 4.94775 177.57 4.94775C182.413 4.94775 186.147 5.75201 188.757 7.36769C191.368 8.98337 192.673 11.4751 192.673 14.8501C192.673 16.5376 192.18 17.9881 191.194 19.2088C190.208 20.4296 188.881 21.32 187.22 21.8801C189.113 22.4043 190.693 23.3594 191.962 24.7453C193.231 26.1312 193.862 27.8761 193.862 29.9729C193.862 33.6854 192.47 36.4284 189.686 38.2093C186.901 39.9901 182.899 40.8805 177.678 40.8805L177.686 40.8877ZM173.995 19.2376H178.142C179.767 19.2376 180.956 18.936 181.688 18.34C182.428 17.744 182.797 16.8607 182.797 15.6974C182.797 14.6849 182.37 13.8807 181.521 13.2775C180.666 12.6815 179.39 12.3799 177.686 12.3799C177.12 12.3799 176.468 12.4014 175.728 12.4373C174.988 12.4732 174.408 12.5307 173.995 12.6025V19.2376ZM173.995 32.9601C174.524 33.1109 175.206 33.2114 176.04 33.2689C176.874 33.3263 177.664 33.3551 178.425 33.3551C179.941 33.3551 181.195 33.0463 182.203 32.4287C183.203 31.8112 183.711 30.8418 183.711 29.5349C183.711 28.2998 183.29 27.4165 182.464 26.8923C181.63 26.3681 180.361 26.1024 178.657 26.1024H174.002V32.9673L173.995 32.9601Z" fill="#707070"/>
<path d="M213.185 40.8876C210.952 40.8876 208.878 40.5788 206.964 39.9613C205.05 39.3437 203.389 38.4174 201.968 37.1751C200.547 35.9328 199.431 34.3818 198.618 32.5076C197.806 30.6334 197.4 28.4361 197.4 25.93C197.4 23.4239 197.806 21.3271 198.618 19.5462C199.431 17.7654 200.504 16.3005 201.83 15.1588C203.157 14.017 204.673 13.1697 206.377 12.6311C208.081 12.0854 209.821 11.8125 211.597 11.8125C213.606 11.8125 215.433 12.1141 217.079 12.7101C218.725 13.3133 220.146 14.1391 221.335 15.1875C222.524 16.2359 223.452 17.4925 224.119 18.9574C224.779 20.4223 225.113 22.0164 225.113 23.7398C225.113 25.018 224.75 25.9874 224.032 26.6624C223.314 27.3374 222.306 27.7683 221.023 27.955L206.993 30.0374C207.406 31.2725 208.262 32.206 209.545 32.8236C210.829 33.4411 212.308 33.7499 213.975 33.7499C215.527 33.7499 216.992 33.556 218.377 33.1611C219.761 32.7661 220.885 32.3065 221.755 31.7823C222.357 32.1557 222.872 32.6799 223.293 33.3549C223.706 34.0299 223.916 34.7408 223.916 35.4948C223.916 37.1823 223.119 38.439 221.531 39.2647C220.32 39.9038 218.957 40.3347 217.441 40.5573C215.926 40.7799 214.505 40.8948 213.185 40.8948V40.8876ZM211.597 18.7851C210.691 18.7851 209.901 18.9359 209.241 19.2375C208.581 19.5391 208.037 19.9196 207.624 20.3936C207.203 20.8603 206.891 21.3845 206.688 21.9662C206.478 22.5478 206.355 23.1366 206.319 23.7398L216.027 22.1672C215.911 21.4204 215.498 20.6664 214.78 19.9196C214.062 19.1728 213.004 18.7922 211.597 18.7922V18.7851Z" fill="#707070"/>
<path d="M239.418 30.5973C239.418 31.5739 239.73 32.2632 240.353 32.6797C240.977 33.0962 241.862 33.2973 242.993 33.2973C243.558 33.2973 244.146 33.2542 244.755 33.1537C245.356 33.0603 245.893 32.9382 246.343 32.7874C246.683 33.2039 246.973 33.6563 247.22 34.1661C247.466 34.6688 247.59 35.2792 247.59 35.9973C247.59 37.4262 247.053 38.5823 245.973 39.4871C244.892 40.3847 242.993 40.8371 240.266 40.8371C236.938 40.8371 234.372 40.0903 232.573 38.5895C230.775 37.0887 229.876 34.6544 229.876 31.2795V7.20219C230.29 7.0873 230.891 6.96523 231.667 6.83597C232.443 6.70672 233.262 6.64209 234.14 6.64209C235.807 6.64209 237.105 6.92932 238.026 7.51097C238.954 8.09261 239.418 9.32053 239.418 11.1947V14.7923H246.857C247.082 15.2088 247.3 15.7186 247.51 16.3362C247.72 16.9537 247.822 17.6359 247.822 18.3899C247.822 19.704 247.524 20.6519 246.944 21.2335C246.357 21.8151 245.574 22.1024 244.588 22.1024H239.418V30.5973Z" fill="#707070"/>
<path d="M262.135 30.5973C262.135 31.5739 262.446 32.2632 263.07 32.6797C263.693 33.0962 264.578 33.2973 265.709 33.2973C266.275 33.2973 266.862 33.2542 267.471 33.1537C268.073 33.0603 268.609 32.9382 269.059 32.7874C269.4 33.2039 269.69 33.6563 269.936 34.1661C270.183 34.6688 270.306 35.2792 270.306 35.9973C270.306 37.4262 269.77 38.5823 268.689 39.4871C267.609 40.3847 265.709 40.8371 262.983 40.8371C259.648 40.8371 257.088 40.0903 255.29 38.5895C253.492 37.0887 252.593 34.6544 252.593 31.2795V7.20219C253.006 7.0873 253.608 6.96523 254.384 6.83597C255.159 6.70672 255.986 6.64209 256.856 6.64209C258.524 6.64209 259.822 6.92932 260.75 7.51097C261.678 8.09261 262.142 9.32053 262.142 11.1947V14.7923H269.581C269.806 15.2088 270.023 15.7186 270.234 16.3362C270.444 16.9537 270.545 17.6359 270.545 18.3899C270.545 19.704 270.255 20.6519 269.668 21.2335C269.081 21.8151 268.298 22.1024 267.312 22.1024H262.142V30.5973H262.135Z" fill="#707070"/>
<path d="M289.448 40.8876C287.215 40.8876 285.141 40.5788 283.227 39.9613C281.313 39.3437 279.652 38.4174 278.231 37.1751C276.81 35.9328 275.693 34.3818 274.881 32.5076C274.069 30.6334 273.663 28.4361 273.663 25.93C273.663 23.4239 274.069 21.3271 274.881 19.5462C275.693 17.7654 276.767 16.3005 278.093 15.1588C279.42 14.017 280.936 13.1697 282.64 12.6311C284.343 12.0854 286.084 11.8125 287.86 11.8125C289.869 11.8125 291.696 12.1141 293.342 12.7101C294.988 13.3133 296.409 14.1391 297.598 15.1875C298.787 16.2359 299.715 17.4925 300.382 18.9574C301.042 20.4223 301.375 22.0164 301.375 23.7398C301.375 25.018 301.013 25.9874 300.295 26.6624C299.577 27.3374 298.569 27.7683 297.286 27.955L283.256 30.0374C283.669 31.2725 284.525 32.206 285.808 32.8236C287.092 33.4411 288.571 33.7499 290.238 33.7499C291.79 33.7499 293.255 33.556 294.639 33.1611C296.024 32.7661 297.148 32.3065 298.018 31.7823C298.62 32.1557 299.135 32.6799 299.555 33.3549C299.969 34.0299 300.179 34.7408 300.179 35.4948C300.179 37.1823 299.381 38.439 297.794 39.2647C296.583 39.9038 295.22 40.3347 293.704 40.5573C292.189 40.7799 290.768 40.8948 289.448 40.8948V40.8876ZM287.86 18.7851C286.954 18.7851 286.163 18.9359 285.504 19.2375C284.844 19.5391 284.3 19.9196 283.887 20.3936C283.466 20.8603 283.154 21.3845 282.951 21.9662C282.741 22.5478 282.618 23.1366 282.582 23.7398L292.29 22.1672C292.174 21.4204 291.761 20.6664 291.043 19.9196C290.325 19.1728 289.267 18.7922 287.86 18.7922V18.7851Z" fill="#707070"/>
<path d="M315.681 39.9327C315.304 40.0476 314.709 40.1553 313.89 40.2702C313.078 40.3851 312.23 40.4426 311.36 40.4426C310.49 40.4426 309.779 40.3851 309.119 40.2702C308.459 40.1553 307.894 39.9327 307.444 39.5952C306.987 39.2577 306.639 38.7982 306.393 38.2165C306.146 37.6349 306.023 36.8737 306.023 35.9402V19.0653C306.023 18.2036 306.183 17.464 306.509 16.8464C306.835 16.2289 307.292 15.6759 307.901 15.1877C308.503 14.6994 309.257 14.2613 310.141 13.8664C311.033 13.4714 311.99 13.1268 313.013 12.8252C314.035 12.5236 315.094 12.2938 316.196 12.1214C317.291 11.9491 318.393 11.8701 319.488 11.8701C321.308 11.8701 322.743 12.2148 323.802 12.9113C324.86 13.6079 325.39 14.7424 325.39 16.315C325.39 16.8392 325.31 17.3563 325.165 17.8589C325.013 18.3616 324.824 18.8211 324.599 19.2376C323.802 19.2376 322.99 19.2735 322.156 19.3525C321.322 19.4315 320.51 19.5392 319.712 19.69C318.915 19.8408 318.168 19.9988 317.472 20.1711C316.769 20.3363 316.174 20.5374 315.681 20.76V39.9399V39.9327Z" fill="#707070"/>
<path d="M350.55 39.9326C350.129 40.0044 349.52 40.1121 348.708 40.2413C347.896 40.3706 347.069 40.4352 346.235 40.4352C345.402 40.4352 344.655 40.3778 343.995 40.2629C343.335 40.148 342.777 39.9254 342.32 39.5879C341.863 39.2504 341.515 38.7908 341.269 38.2092C341.022 37.6275 340.899 36.8664 340.899 35.9329V3.3176C341.312 3.24579 341.929 3.13808 342.748 3.00882C343.56 2.87957 344.387 2.81494 345.22 2.81494C346.054 2.81494 346.801 2.87239 347.461 2.9801C348.121 3.09499 348.679 3.3176 349.136 3.6551C349.593 3.99259 349.941 4.45217 350.187 5.03381C350.434 5.61546 350.557 6.37663 350.557 7.31013V39.9326H350.55Z" fill="#707070"/>
<path d="M356.626 13.0474C357.003 12.9325 357.597 12.8248 358.417 12.7099C359.229 12.595 360.07 12.5376 360.947 12.5376C361.824 12.5376 362.528 12.595 363.188 12.7099C363.847 12.8248 364.406 13.0474 364.862 13.3849C365.319 13.7224 365.667 14.182 365.914 14.7636C366.16 15.3453 366.284 16.1065 366.284 17.04V29.1325C366.284 30.6692 366.661 31.7678 367.422 32.4213C368.176 33.0747 369.278 33.405 370.714 33.405C371.584 33.405 372.294 33.3332 372.845 33.1824C373.397 33.0316 373.817 32.8808 374.122 32.73V13.0474C374.499 12.9325 375.093 12.8248 375.913 12.7099C376.725 12.595 377.566 12.5376 378.443 12.5376C379.32 12.5376 380.024 12.595 380.684 12.7099C381.343 12.8248 381.902 13.0474 382.358 13.3849C382.815 13.7224 383.163 14.182 383.41 14.7636C383.656 15.3453 383.78 16.1065 383.78 17.04V34.1375C383.78 36.0117 382.982 37.4191 381.394 38.3526C380.067 39.1784 378.487 39.8031 376.652 40.234C374.818 40.6648 372.816 40.8803 370.663 40.8803C368.618 40.8803 366.733 40.6577 365.015 40.2053C363.289 39.7529 361.803 39.0635 360.556 38.1228C359.308 37.1893 358.344 35.9758 357.663 34.4965C356.981 33.0173 356.64 31.2293 356.64 29.1253V13.0474H356.626Z" fill="#707070"/>
<path d="M405.234 19.345C404.285 19.345 403.385 19.4958 402.537 19.7974C401.682 20.099 400.949 20.537 400.326 21.1187C399.702 21.7003 399.202 22.4184 398.817 23.2801C398.44 24.1418 398.252 25.1543 398.252 26.3176C398.252 28.6442 398.926 30.3891 400.268 31.5452C401.609 32.7085 403.248 33.2902 405.176 33.2902C406.315 33.2902 407.294 33.1609 408.127 32.8952C408.961 32.6367 409.701 32.3495 410.339 32.0551C411.093 32.5793 411.666 33.1537 412.043 33.7713C412.42 34.3888 412.608 35.1285 412.608 35.9902C412.608 37.5268 411.869 38.7189 410.397 39.559C408.918 40.4064 406.873 40.8228 404.263 40.8228C401.877 40.8228 399.717 40.4782 397.788 39.7816C395.859 39.0851 394.199 38.1157 392.821 36.859C391.436 35.6024 390.37 34.0944 389.609 32.3351C388.848 30.5758 388.471 28.6226 388.471 26.4828C388.471 24.0054 388.877 21.844 389.689 19.9841C390.501 18.1243 391.61 16.602 393.01 15.4028C394.409 14.2036 396.026 13.306 397.868 12.7028C399.702 12.1068 401.645 11.8052 403.69 11.8052C406.416 11.8052 408.519 12.2935 409.991 13.2701C411.47 14.2467 412.202 15.5033 412.202 17.04C412.202 17.7509 412.028 18.4187 411.687 19.0363C411.347 19.6538 410.948 20.1924 410.498 20.6376C409.853 20.336 409.077 20.0487 408.171 19.7687C407.265 19.4886 406.278 19.345 405.22 19.345H405.234Z" fill="#707070"/>
<path d="M444.424 35.0353C444.236 36.8017 443.714 38.1445 442.866 39.0852C442.01 40.0187 440.77 40.4927 439.146 40.4927C437.935 40.4927 436.855 40.2054 435.912 39.6238C434.962 39.0421 433.94 38.0584 432.845 36.6725L427.226 29.6999V39.9326C426.805 40.0044 426.196 40.1121 425.377 40.2413C424.565 40.3706 423.738 40.4352 422.904 40.4352C422.071 40.4352 421.324 40.3778 420.664 40.2629C420.004 40.148 419.446 39.9254 418.989 39.5879C418.532 39.2504 418.184 38.7908 417.938 38.2092C417.691 37.6275 417.568 36.8664 417.568 35.9329V3.37504C417.981 3.26015 418.597 3.13808 419.417 3.00882C420.229 2.87957 421.055 2.81494 421.889 2.81494C422.723 2.81494 423.47 2.87239 424.13 2.9801C424.79 3.09499 425.348 3.3176 425.805 3.6551C426.261 3.99259 426.609 4.45217 426.856 5.03381C427.103 5.61546 427.226 6.37662 427.226 7.31013V22.1601L436.992 12.2649C438.957 12.2649 440.538 12.6957 441.734 13.5574C442.924 14.4191 443.525 15.5106 443.525 16.8175C443.525 17.3776 443.431 17.8946 443.243 18.3614C443.054 18.8282 442.757 19.3093 442.365 19.7976C441.966 20.2859 441.459 20.8029 440.835 21.3414C440.212 21.8872 439.479 22.5119 438.646 23.2228L435.354 26.0377L444.439 35.0353H444.424Z" fill="#707070"/>
<path d="M477.814 22.6626C477.814 21.4993 477.48 20.6448 476.821 20.1062C476.161 19.5605 475.262 19.2876 474.123 19.2876C473.369 19.2876 472.615 19.3809 471.883 19.5676C471.143 19.7543 470.512 20.0344 469.983 20.4078V39.9252C469.606 40.0401 469.012 40.1478 468.192 40.2627C467.38 40.3776 466.532 40.4351 465.662 40.4351C464.792 40.4351 464.081 40.3776 463.421 40.2627C462.761 40.1478 462.203 39.9252 461.746 39.5877C461.29 39.2502 460.942 38.7907 460.695 38.209C460.448 37.6274 460.325 36.8662 460.325 35.9327V19.065C460.325 18.0525 460.543 17.2267 460.978 16.5876C461.413 15.9485 462.007 15.3669 462.769 14.8427C464.059 13.9451 465.676 13.2126 467.627 12.6525C469.577 12.0924 471.745 11.8052 474.131 11.8052C478.408 11.8052 481.7 12.7315 484.013 14.5913C486.319 16.444 487.479 19.0219 487.479 22.3251V39.9252C487.102 40.0401 486.507 40.1478 485.688 40.2627C484.876 40.3776 484.028 40.4351 483.158 40.4351C482.288 40.4351 481.577 40.3776 480.917 40.2627C480.257 40.1478 479.699 39.9252 479.242 39.5877C478.785 39.2502 478.437 38.7907 478.191 38.209C477.944 37.6274 477.821 36.8662 477.821 35.9327V22.6626H477.814Z" fill="#707070"/>
<path d="M508.02 40.8876C505.787 40.8876 503.713 40.5788 501.799 39.9613C499.885 39.3437 498.225 38.4174 496.804 37.1751C495.382 35.9328 494.266 34.3818 493.454 32.5076C492.642 30.6334 492.236 28.4361 492.236 25.93C492.236 23.4239 492.642 21.3271 493.454 19.5462C494.266 17.7654 495.339 16.3005 496.666 15.1588C497.993 14.017 499.508 13.1697 501.212 12.6311C502.916 12.0854 504.656 11.8125 506.432 11.8125C508.441 11.8125 510.268 12.1141 511.914 12.7101C513.56 13.3133 514.981 14.1391 516.17 15.1875C517.359 16.2359 518.287 17.4925 518.954 18.9574C519.614 20.4223 519.948 22.0164 519.948 23.7398C519.948 25.018 519.585 25.9874 518.867 26.6624C518.15 27.3374 517.142 27.7683 515.858 27.955L501.828 30.0374C502.242 31.2725 503.097 32.206 504.381 32.8236C505.664 33.4411 507.143 33.7499 508.811 33.7499C510.362 33.7499 511.827 33.556 513.212 33.1611C514.597 32.7661 515.721 32.3065 516.591 31.7823C517.192 32.1557 517.707 32.6799 518.128 33.3549C518.541 34.0299 518.751 34.7408 518.751 35.4948C518.751 37.1823 517.954 38.439 516.366 39.2647C515.155 39.9038 513.792 40.3347 512.277 40.5573C510.761 40.7799 509.34 40.8948 508.02 40.8948V40.8876ZM506.432 18.7851C505.526 18.7851 504.736 18.9359 504.076 19.2375C503.416 19.5391 502.872 19.9196 502.459 20.3936C502.039 20.8603 501.727 21.3845 501.524 21.9662C501.313 22.5478 501.19 23.1366 501.154 23.7398L510.863 22.1672C510.747 21.4204 510.333 20.6664 509.616 19.9196C508.898 19.1728 507.839 18.7922 506.432 18.7922V18.7851Z" fill="#707070"/>
<path d="M522.79 17.0975C523.095 15.6757 523.689 14.5124 524.581 13.6077C525.473 12.7101 526.575 12.2577 527.902 12.2577C529.149 12.2577 530.113 12.5593 530.795 13.1553C531.476 13.7585 532.23 14.5986 533.064 15.6829L536.697 20.4079L542.773 12.2505C544.854 12.2505 546.5 12.6167 547.711 13.3492C548.922 14.0816 549.531 15.0654 549.531 16.3005C549.531 16.7888 549.465 17.2268 549.335 17.6217C549.204 18.0167 549.001 18.4188 548.74 18.8281C548.472 19.2446 548.131 19.7114 547.718 20.2356C547.297 20.7598 546.812 21.3773 546.239 22.0882L542.49 26.2531L549.929 35.9831C549.741 37.4121 549.168 38.5323 548.225 39.3581C547.276 40.1839 546.145 40.5932 544.818 40.5932C543.375 40.5573 542.236 40.1408 541.381 39.3581C540.532 38.5682 539.706 37.6131 538.908 36.4929L535.841 32.1629L530.048 40.428C529.859 40.428 529.649 40.4352 529.424 40.4567C529.2 40.4783 529.004 40.4854 528.859 40.4854C526.93 40.4854 525.458 40.0905 524.458 39.3078C523.457 38.5179 522.95 37.5485 522.95 36.3852C522.95 35.4876 523.167 34.6905 523.602 33.994C524.037 33.2975 524.784 32.3568 525.843 31.1504L530.389 25.9228L522.776 17.0904L522.79 17.0975Z" fill="#707070"/>
<path d="M563.677 30.5973C563.677 31.5739 563.988 32.2632 564.612 32.6797C565.236 33.0962 566.12 33.2973 567.251 33.2973C567.817 33.2973 568.404 33.2542 569.013 33.1537C569.615 33.0603 570.152 32.9382 570.601 32.7874C570.942 33.2039 571.232 33.6563 571.478 34.1661C571.725 34.6688 571.848 35.2792 571.848 35.9973C571.848 37.4262 571.312 38.5823 570.231 39.4871C569.151 40.3847 567.251 40.8371 564.525 40.8371C561.197 40.8371 558.63 40.0903 556.832 38.5895C555.034 37.0887 554.135 34.6544 554.135 31.2795V7.20219C554.548 7.0873 555.15 6.96523 555.926 6.83597C556.701 6.70672 557.521 6.64209 558.398 6.64209C560.066 6.64209 561.364 6.92932 562.285 7.51097C563.213 8.09261 563.677 9.32053 563.677 11.1947V14.7923H571.116C571.341 15.2088 571.558 15.7186 571.768 16.3362C571.979 16.9537 572.08 17.6359 572.08 18.3899C572.08 19.704 571.783 20.6519 571.203 21.2335C570.616 21.8151 569.833 22.1024 568.846 22.1024H563.677V30.5973Z" fill="#707070"/>
<path d="M597.748 30.5973C597.748 31.5739 598.06 32.2632 598.683 32.6797C599.307 33.0962 600.191 33.2973 601.322 33.2973C601.888 33.2973 602.475 33.2542 603.084 33.1537C603.686 33.0603 604.223 32.9382 604.672 32.7874C605.013 33.2039 605.303 33.6563 605.549 34.1661C605.796 34.6688 605.919 35.2792 605.919 35.9973C605.919 37.4262 605.383 38.5823 604.302 39.4871C603.222 40.3847 601.322 40.8371 598.596 40.8371C595.261 40.8371 592.701 40.0903 590.903 38.5895C589.105 37.0887 588.206 34.6544 588.206 31.2795V7.20219C588.619 7.0873 589.221 6.96523 589.997 6.83597C590.773 6.70672 591.599 6.64209 592.469 6.64209C594.137 6.64209 595.435 6.92932 596.363 7.51097C597.291 8.09261 597.755 9.32053 597.755 11.1947V14.7923H605.194C605.419 15.2088 605.637 15.7186 605.847 16.3362C606.057 16.9537 606.159 17.6359 606.159 18.3899C606.159 19.704 605.869 20.6519 605.281 21.2335C604.694 21.8151 603.911 22.1024 602.925 22.1024H597.755V30.5973H597.748Z" fill="#707070"/>
<path d="M610.581 5.06247C610.581 3.64067 611.067 2.44148 612.032 1.46489C612.996 0.488295 614.272 0 615.867 0C617.462 0 618.738 0.488295 619.703 1.46489C620.667 2.44148 621.153 3.64067 621.153 5.06247C621.153 6.48427 620.667 7.69065 619.703 8.66006C618.738 9.63665 617.462 10.1249 615.867 10.1249C614.272 10.1249 613.003 9.63665 612.032 8.66006C611.067 7.68347 610.581 6.48427 610.581 5.06247ZM620.689 39.9325C620.268 40.0043 619.659 40.112 618.84 40.2413C618.028 40.3705 617.201 40.4352 616.368 40.4352C615.534 40.4352 614.787 40.3777 614.127 40.2628C613.467 40.1479 612.909 39.9253 612.452 39.5878C611.995 39.2503 611.647 38.7908 611.401 38.2091C611.154 37.6275 611.031 36.8663 611.031 35.9328V13.0475C611.444 12.9757 612.061 12.868 612.88 12.7388C613.692 12.6095 614.519 12.5449 615.352 12.5449C616.186 12.5449 616.933 12.6023 617.593 12.7172C618.253 12.8321 618.811 13.0547 619.268 13.3922C619.725 13.7297 620.073 14.1893 620.319 14.7709C620.566 15.3526 620.689 16.1137 620.689 17.0473V39.9397V39.9325Z" fill="#707070"/>
<path d="M640.056 11.8124C641.607 11.8124 643.13 12.0278 644.624 12.4586C646.117 12.8895 647.415 13.5358 648.517 14.3974C649.655 13.6506 650.932 13.0259 652.353 12.5376C653.774 12.0493 655.485 11.8052 657.493 11.8052C658.929 11.8052 660.343 11.9919 661.721 12.3653C663.106 12.7387 664.331 13.3275 665.411 14.1389C666.492 14.9432 667.354 16.0131 667.993 17.3416C668.638 18.67 668.957 20.2929 668.957 22.203V39.9181C668.58 40.033 667.985 40.1407 667.166 40.2556C666.354 40.3705 665.506 40.4279 664.635 40.4279C663.765 40.4279 663.055 40.3705 662.395 40.2556C661.735 40.1407 661.177 39.9181 660.72 39.5806C660.263 39.2431 659.915 38.7835 659.669 38.2018C659.422 37.6202 659.299 36.859 659.299 35.9255V22.4974C659.299 21.37 658.98 20.5586 658.335 20.0487C657.689 19.5461 656.819 19.2876 655.724 19.2876C655.195 19.2876 654.629 19.4097 654.02 19.6538C653.411 19.898 652.962 20.1493 652.657 20.415C652.694 20.5658 652.715 20.7022 652.715 20.8386V39.9324C652.295 40.0473 651.686 40.155 650.866 40.2699C650.054 40.3848 649.228 40.4423 648.394 40.4423C647.56 40.4423 646.813 40.3848 646.153 40.2699C645.494 40.155 644.935 39.9324 644.478 39.5949C644.022 39.2574 643.674 38.7979 643.427 38.2162C643.181 37.6346 643.057 36.8734 643.057 35.9399V22.4974C643.057 21.37 642.709 20.5586 642.006 20.0487C641.303 19.5461 640.462 19.2876 639.476 19.2876C638.794 19.2876 638.207 19.3881 637.714 19.5964C637.221 19.8046 636.807 19.9985 636.466 20.1852V39.9252C636.089 40.0401 635.495 40.1478 634.676 40.2627C633.863 40.3776 633.015 40.4351 632.145 40.4351C631.275 40.4351 630.564 40.3776 629.905 40.2627C629.245 40.1478 628.679 39.9252 628.23 39.5877C627.773 39.2502 627.425 38.7907 627.178 38.209C626.932 37.6274 626.809 36.8662 626.809 35.9327V18.9501C626.809 17.9376 627.026 17.1333 627.461 16.5302C627.896 15.9341 628.491 15.3669 629.252 14.8427C630.535 13.9451 632.138 13.2126 634.052 12.6525C635.966 12.0924 637.96 11.8052 640.041 11.8052L640.056 11.8124Z" fill="#707070"/>
<path d="M689.462 40.8876C687.229 40.8876 685.155 40.5788 683.241 39.9613C681.327 39.3437 679.666 38.4174 678.245 37.1751C676.824 35.94 675.707 34.3818 674.895 32.5076C674.083 30.6334 673.677 28.4361 673.677 25.93C673.677 23.4239 674.083 21.3271 674.895 19.5462C675.707 17.7654 676.78 16.3005 678.107 15.1588C679.434 14.017 680.95 13.1697 682.653 12.6311C684.357 12.0854 686.098 11.8125 687.881 11.8125C689.89 11.8125 691.717 12.1141 693.363 12.7101C695.009 13.3133 696.43 14.1391 697.619 15.1875C698.808 16.2359 699.736 17.4925 700.403 18.9574C701.063 20.4223 701.396 22.0164 701.396 23.7398C701.396 25.018 701.034 25.9874 700.316 26.6624C699.598 27.3374 698.59 27.7683 697.307 27.955L683.284 30.0374C683.698 31.2725 684.553 32.206 685.837 32.8236C687.12 33.4411 688.599 33.7499 690.267 33.7499C691.818 33.7499 693.283 33.556 694.668 33.1611C696.053 32.7661 697.177 32.3065 698.047 31.7823C698.648 32.1557 699.163 32.6799 699.577 33.3549C699.99 34.0299 700.2 34.7408 700.2 35.4948C700.2 37.1823 699.403 38.439 697.815 39.2647C696.604 39.9038 695.241 40.3347 693.725 40.5573C692.21 40.7799 690.789 40.8948 689.469 40.8948L689.462 40.8876ZM687.874 18.7851C686.968 18.7851 686.177 18.9359 685.517 19.2375C684.858 19.5391 684.314 19.9196 683.901 20.3936C683.48 20.8603 683.168 21.3845 682.965 21.9662C682.755 22.5478 682.632 23.1366 682.595 23.7398L692.304 22.1672C692.188 21.4204 691.775 20.6664 691.057 19.9196C690.339 19.1728 689.273 18.7922 687.874 18.7922V18.7851Z" fill="#707070"/>
<path d="M706.102 35.7102C706.102 34.1735 706.588 32.9096 707.552 31.9115C708.517 30.9205 709.851 30.4179 711.555 30.4179C713.259 30.4179 714.593 30.9134 715.557 31.9115C716.521 32.9025 717.007 34.1735 717.007 35.7102C717.007 37.2468 716.521 38.5107 715.557 39.5088C714.593 40.4998 713.259 41.0024 711.555 41.0024C709.851 41.0024 708.517 40.5069 707.552 39.5088C706.588 38.5178 706.102 37.254 706.102 35.7102ZM716.55 7.36748C716.55 8.22918 716.529 9.47864 716.492 11.1087C716.456 12.7387 716.376 14.5052 716.268 16.3938C716.152 18.2895 715.999 20.1781 715.811 22.0738C715.622 23.9695 715.39 25.6067 715.129 26.9926C714.977 27.1075 714.752 27.2153 714.448 27.3301C714.143 27.445 713.824 27.5384 713.483 27.6102C713.143 27.6892 712.802 27.7395 712.461 27.7754C712.12 27.8113 711.816 27.8328 711.555 27.8328C710.453 27.8328 709.539 27.6676 708.799 27.3301C708.06 26.9926 707.596 26.3392 707.407 25.3626C707.219 24.5009 707.059 23.1868 706.922 21.4275C706.791 19.6682 706.668 17.7509 706.552 15.69C706.436 13.6292 706.356 11.5826 706.298 9.55763C706.24 7.53264 706.211 5.80925 706.211 4.38027C706.965 3.97096 707.828 3.64064 708.792 3.3965C709.757 3.15235 710.714 3.03027 711.664 3.03027C713.215 3.03027 714.419 3.38931 715.267 4.10021C716.123 4.81112 716.543 5.9026 716.543 7.3603L716.55 7.36748Z" fill="#707070"/>
</g>
<defs>
<clipPath id="clip0_2499_6910">
<rect width="717" height="50" fill="white"/>
</clipPath>
</defs>
</svg>
