<svg
  width="44"
  height="35"
  viewBox="0 0 44 35"
  fill="none"
  xmlns="http://www.w3.org/2000/svg"
  style="width: 44px; height: 35px; position: relative;"
  preserveAspectRatio="none"
>
  <g clip-path="url(#clip0_2602_1050)">
    <path
      d="M6.03109 11.3869L7.89788 1.95402H6.48157C6.48157 1.95402 4.80795 0.94329 6.03109 0H24.3135C24.3135 0 26.0515 1.68441 24.3135 2.9646L25.9228 12.5322V13.4755H37.2528C37.2528 13.4755 39.7634 13.4755 39.7634 15.8338V17.114L34.3559 24.9972H26.8885L25.7619 26.1764H22.6736V25.1994H6.28855L3.84227 14.9579C3.84227 14.9579 3.52037 11.3869 6.03095 11.3869H6.03109Z"
      fill="#FF9601"
    ></path>
    <path
      d="M22.8473 3.98413L24.2958 12.1714C24.2958 12.1714 24.5855 13.5865 22.8473 13.5865H10.7787V5.7024C10.7787 5.7024 10.6309 3.98413 12.0311 3.98413H22.8472H22.8473Z"
      fill="white"
    ></path>
    <path
      d="M32.7863 6.81426V3.46995C32.7863 2.15603 33.6158 2.22347 33.6158 2.22347V1.68439C32.1995 1.68439 32.2961 3.43623 32.2961 3.43623V6.81412H31.4424V14.6476H33.8084V6.81426H32.7863Z"
      fill="#FF9601"
    ></path>
    <path
      d="M19.4452 23.9347C19.4452 23.6164 19.1988 23.3584 18.8948 23.3584C18.8754 23.3584 18.8562 23.3596 18.8374 23.3616C18.7344 22.6528 18.5577 21.9693 18.3158 21.32C18.3328 21.312 18.3496 21.303 18.3661 21.293C18.6293 21.1339 18.7197 20.7815 18.5675 20.5059L17.7179 18.9658C17.5659 18.6901 17.2291 18.5957 16.9659 18.7548C16.9488 18.7652 16.9324 18.7763 16.9169 18.7882C16.4946 18.2375 16.0156 17.7363 15.4894 17.2942C15.5007 17.2778 15.5115 17.2608 15.5214 17.2429C15.6734 16.9674 15.5832 16.6149 15.3198 16.4558L13.8483 15.5666C13.5851 15.4075 13.2483 15.5019 13.0963 15.7774C13.0868 15.7947 13.0783 15.8123 13.0706 15.83C12.4502 15.5768 11.7972 15.3919 11.1199 15.2841C11.1218 15.2644 11.1229 15.2443 11.1229 15.224C11.1229 14.9059 10.8765 14.6478 10.5724 14.6478H8.87313C8.56914 14.6478 8.32256 14.9057 8.32256 15.224C8.32256 15.2443 8.32366 15.2644 8.32559 15.2841C7.64834 15.3919 6.99533 15.5768 6.37495 15.83C6.36738 15.8123 6.3587 15.7947 6.3492 15.7774C6.19721 15.5019 5.86044 15.4073 5.5972 15.5664L4.12569 16.4557C3.86245 16.6148 3.77213 16.9672 3.92413 17.2427C3.93404 17.2606 3.94464 17.2778 3.95607 17.2941C3.42986 17.7362 2.95101 18.2373 2.52861 18.7881C2.51305 18.7761 2.49667 18.765 2.4796 18.7547C2.21636 18.5956 1.87959 18.69 1.7276 18.9656L0.877979 20.5059C0.725981 20.7815 0.816161 21.1339 1.0794 21.293C1.09592 21.303 1.11272 21.3119 1.12966 21.32C0.887754 21.9693 0.711112 22.6528 0.608128 23.3616C0.589266 23.3596 0.569991 23.3584 0.550578 23.3584C0.246583 23.3584 0 23.6164 0 23.9347V25.7132C0 26.0314 0.246445 26.2895 0.550578 26.2895C0.569991 26.2895 0.589128 26.2884 0.608128 26.2863C0.711112 26.9951 0.887754 27.6786 1.12966 28.3279C1.11272 28.3358 1.09592 28.3449 1.0794 28.3549C0.816161 28.514 0.725844 28.8664 0.877841 29.1419L1.72746 30.6821C1.87946 30.9578 2.21622 31.0522 2.47946 30.8931C2.49653 30.8827 2.51292 30.8716 2.52847 30.8596C2.95087 31.4104 3.42972 31.9116 3.95593 32.3537C3.9445 32.37 3.9339 32.3871 3.92399 32.405C3.77199 32.6805 3.86217 33.033 4.12555 33.1921L5.59706 34.0813C5.86031 34.2404 6.19707 34.146 6.34907 33.8704C6.35857 33.8531 6.3671 33.8355 6.37481 33.8178C6.99519 34.0709 7.64821 34.2558 8.32545 34.3636C8.32352 34.3834 8.32242 34.4034 8.32242 34.4237C8.32242 34.7419 8.56886 35 8.873 35H10.5722C10.8764 35 11.1228 34.742 11.1228 34.4237C11.1228 34.4034 11.1217 34.3834 11.1198 34.3636C11.797 34.2558 12.45 34.0709 13.0704 33.8178C13.0781 33.8356 13.0867 33.8531 13.0962 33.8704C13.2482 34.1459 13.5849 34.2404 13.8482 34.0813L15.3197 33.1921C15.5831 33.033 15.6732 32.6805 15.5212 32.405C15.5113 32.3871 15.5007 32.37 15.4893 32.3537C16.0155 31.9116 16.4944 31.4104 16.9168 30.8596C16.9324 30.8716 16.9487 30.8827 16.9658 30.8931C17.229 31.0522 17.5658 30.9578 17.7178 30.6821L18.5674 29.1418C18.7194 28.8661 18.6292 28.5138 18.366 28.3547C18.3494 28.3448 18.3326 28.3358 18.3157 28.3278C18.5576 27.6785 18.7343 26.995 18.8372 26.2861C18.8561 26.2882 18.8752 26.2893 18.8947 26.2893C19.1986 26.2893 19.4452 26.0314 19.4452 25.713V23.9345V23.9347Z"
      fill="#FF9601"
    ></path>
    <path
      d="M14.1942 29.5038C16.6637 26.9191 16.6637 22.7285 14.1942 20.1437C11.7246 17.559 7.72076 17.559 5.25124 20.1437C2.78172 22.7285 2.78173 26.9191 5.25124 29.5038C7.72076 32.0886 11.7246 32.0886 14.1942 29.5038Z"
      fill="white"
    ></path>
    <path
      d="M12.3147 27.5367C13.7461 26.0384 13.7461 23.6092 12.3147 22.1109C10.8832 20.6127 8.56226 20.6127 7.13076 22.1109C5.69927 23.6092 5.69927 26.0384 7.13076 27.5367C8.56226 29.0349 10.8832 29.0349 12.3147 27.5367Z"
      fill="#FF9601"
    ></path>
    <path
      d="M43.9999 26.6311C43.9999 26.3905 43.8135 26.1954 43.5836 26.1954C43.5688 26.1954 43.5544 26.1962 43.5402 26.1977C43.4623 25.6616 43.3287 25.1447 43.1458 24.6536C43.1586 24.6476 43.1712 24.6408 43.1838 24.6333C43.383 24.513 43.4511 24.2464 43.3362 24.038L42.6936 22.8731C42.5787 22.6647 42.3239 22.5933 42.1249 22.7136C42.1119 22.7214 42.0995 22.7299 42.0877 22.739C41.7683 22.3224 41.406 21.9434 41.008 21.6091C41.0165 21.5967 41.0247 21.5837 41.0321 21.5701C41.1471 21.3618 41.0788 21.0952 40.8797 20.9749L39.7667 20.3023C39.5675 20.182 39.3129 20.2533 39.1979 20.4619C39.1908 20.475 39.1843 20.4882 39.1785 20.5016C38.7093 20.3101 38.2155 20.1702 37.7032 20.0888C37.7047 20.0738 37.7055 20.0587 37.7055 20.0432C37.7055 19.8026 37.5191 19.6075 37.2892 19.6075H36.0041C35.7741 19.6075 35.5877 19.8026 35.5877 20.0432C35.5877 20.0587 35.5886 20.0738 35.5899 20.0888C35.0778 20.1703 34.5839 20.3101 34.1147 20.5016C34.1089 20.4882 34.1024 20.4748 34.0953 20.4619C33.9803 20.2535 33.7256 20.182 33.5265 20.3023L32.4135 20.9749C32.2145 21.0952 32.1462 21.3618 32.2611 21.5701C32.2686 21.5837 32.2767 21.5967 32.2852 21.6089C31.8872 21.9432 31.5251 22.3224 31.2057 22.7388C31.1938 22.7297 31.1815 22.7214 31.1686 22.7134C30.9696 22.5931 30.7149 22.6646 30.5999 22.873L29.9573 24.0379C29.8424 24.2463 29.9105 24.5128 30.1098 24.6332C30.1223 24.6407 30.135 24.6474 30.1478 24.6535C29.9648 25.1446 29.8312 25.6615 29.7533 26.1975C29.739 26.196 29.7245 26.1952 29.7098 26.1952C29.4799 26.1952 29.2935 26.3903 29.2935 26.631V27.976C29.2935 28.2167 29.4799 28.4118 29.7098 28.4118C29.7245 28.4118 29.739 28.4109 29.7533 28.4095C29.8312 28.9456 29.9648 29.4625 30.1478 29.9536C30.135 29.9596 30.1223 29.9664 30.1098 29.9739C29.9105 30.0942 29.8424 30.3608 29.9573 30.5692L30.5999 31.7341C30.7149 31.9424 30.9696 32.0139 31.1686 31.8936C31.1816 31.8858 31.194 31.8773 31.2057 31.8684C31.5251 32.285 31.8873 32.664 32.2852 32.9983C32.2767 33.0107 32.2686 33.0236 32.2611 33.0372C32.1462 33.2456 32.2145 33.5121 32.4135 33.6325L33.5265 34.305C33.7256 34.4253 33.9803 34.354 34.0953 34.1455C34.1026 34.1325 34.1089 34.1191 34.1148 34.1057C34.584 34.2972 35.0779 34.437 35.5901 34.5185C35.5886 34.5335 35.5879 34.5487 35.5879 34.5641C35.5879 34.8047 35.7743 34.9999 36.0042 34.9999H37.2893C37.5194 34.9999 37.7058 34.8047 37.7056 34.5641C37.7056 34.5487 37.7048 34.5335 37.7034 34.5185C38.2156 34.437 38.7095 34.2972 39.1787 34.1057C39.1845 34.1191 39.1909 34.1325 39.1981 34.1455C39.313 34.354 39.5677 34.4253 39.7668 34.305L40.8798 33.6325C41.0791 33.5121 41.1472 33.2456 41.0322 33.0372C41.0248 33.0236 41.0167 33.0107 41.0081 32.9983C41.4062 32.664 41.7684 32.2848 42.0878 31.8684C42.0997 31.8773 42.1119 31.8858 42.125 31.8936C42.3241 32.0139 42.5788 31.9426 42.6938 31.7341L43.3363 30.5692C43.4513 30.3608 43.3831 30.0942 43.1839 29.9739C43.1714 29.9664 43.1587 29.9596 43.1459 29.9536C43.3289 29.4625 43.4624 28.9456 43.5403 28.4095C43.5547 28.4111 43.5691 28.4118 43.5837 28.4118C43.8136 28.4118 44.0001 28.2167 44.0001 27.976V26.631L43.9999 26.6311Z"
      fill="#FF9601"
    ></path>
    <path
      d="M40.0284 30.8432C41.8961 28.8884 41.8961 25.7189 40.0284 23.7641C38.1607 21.8093 35.1325 21.8093 33.2648 23.7641C31.3971 25.7189 31.3971 28.8884 33.2648 30.8432C35.1325 32.798 38.1607 32.798 40.0284 30.8432Z"
      fill="white"
    ></path>
    <path
      d="M38.607 29.3554C39.6897 28.2223 39.6897 26.385 38.607 25.2519C37.5244 24.1187 35.769 24.1187 34.6864 25.2519C33.6037 26.385 33.6037 28.2223 34.6864 29.3554C35.769 30.4886 37.5244 30.4886 38.607 29.3554Z"
      fill="#FF9601"
    ></path>
  </g>
  <defs>
    <clipPath id="clip0_2602_1050"><rect width="44" height="35" fill="white"></rect></clipPath>
  </defs>
</svg>